<?xml version="1.0" encoding="utf-8"?>
<!-- Generator: Adobe Illustrator 24.2.3, SVG Export Plug-In . SVG Version: 6.00 Build 0)  -->
<svg version="1.1" id="レイヤー_1" xmlns="http://www.w3.org/2000/svg" xmlns:xlink="http://www.w3.org/1999/xlink" x="0px"
	 y="0px" viewBox="0 0 283.5 283.5" style="enable-background:new 0 0 283.5 283.5;" xml:space="preserve">
<style type="text/css">
	.st0{fill:none;stroke:#FFFFFF;stroke-width:6;stroke-miterlimit:10;}
	.st1{stroke:#FFFFFF;stroke-width:6;stroke-miterlimit:10;}
	.st2{fill:none;stroke:#FFFFFF;stroke-width:2;stroke-miterlimit:10;}
	.st3{fill:#FFFFFF;stroke:#040000;stroke-miterlimit:10;}
	.st4{stroke:#000000;stroke-miterlimit:10;}
	.st5{stroke:#040000;stroke-miterlimit:10;}
</style>
<g>
	<g>
		<path class="st0" d="M127.2,229.9c-1-0.1-1.9-0.3-2.9-0.5C125.2,229.7,126.2,229.8,127.2,229.9z"/>
		<path class="st0" d="M130.2,230.3c-1-0.1-2.1-0.2-3-0.4C128.1,230.1,129.2,230.2,130.2,230.3z"/>
		<path class="st0" d="M167.9,224.7c-0.7,0.5-1.4,1-2.2,1.5C166.5,225.7,167.2,225.2,167.9,224.7z"/>
		<path class="st0" d="M178.4,191c0,0.4,0,0.7-0.1,1.1c-0.1,1-0.1,1.9-0.2,2.9c0.1-1,0.1-1.9,0.2-2.9
			C178.3,191.7,178.3,191.4,178.4,191z"/>
		<path class="st0" d="M204.9,157.1L204.9,157.1c-0.1,0-0.2,0-0.2,0.1C204.7,157.2,204.8,157.2,204.9,157.1z"/>
	</g>
	<g>
		<path class="st0" d="M204.7,157.2c0.1,0,0.1,0,0.2,0v0C204.8,157.2,204.7,157.2,204.7,157.2z"/>
		<path class="st0" d="M167.8,75.1c0,0,0-0.1,0-0.1c-0.1-1.3,0.4-2.4,1.3-3.2c0.2-0.2,0.4-0.4,0.6-0.5c0.5-0.4,1-0.7,1.6-1
			c0.4-0.2,0.7-0.4,1.1-0.5c0.4-0.2,0.8-0.3,1.2-0.4c0.6-0.2,1.3-0.4,1.9-0.5c0.2,0,0.5-0.1,0.7-0.2c0.2,0,0.5-0.1,0.7-0.1
			c0.4-0.1,0.9-0.1,1.3-0.2c0,0,0,0,0,0c0.8-0.1,1.6-0.2,2.3-0.3c0.6,0,1.3-0.1,1.9-0.1c1.1,0,2.1,0,3,0c0.1,0,0.3,0,0.4,0
			c0.4,0,0.8,0.1,1.2,0.1c0.4,0,0.8,0.1,1.2,0.2c0.2,0,0.4,0.1,0.6,0.1c0.4,0.1,0.8,0.2,1.1,0.3c0.4,0.1,0.8,0.2,1.1,0.4
			c0.7,0.3,1.5,0.6,2.1,1c1.4,0.7,2.7,1.6,3.9,2.6c0.5,0.4,0.9,0.8,1.3,1.2c0.2,0.1,0.3,0.3,0.4,0.4c8.3,8.5,11.7,23.5,6.4,33.7
			c-0.5,1.1-1.3,2.2-2.3,3l-0.4,0.4c-0.3,0.2-0.5,0.5-0.8,0.7c-0.5,0.4-1.1,0.8-1.7,1.1c-0.6,0.3-1.2,0.6-1.8,0.8
			c-0.4,0.1-0.8,0.2-1.2,0.3c-0.3,0.1-0.7,0.1-1,0.1c-0.2,0-0.3,0-0.5,0c0.1,0.3,0.1,0.6,0.2,1c0,0.3,0.1,0.6,0.1,1
			c6.2-4.2,13.8-6.9,20.8-3.6c11.3,5.3,15.5,23.8,9.2,34.1c-0.5,0.9-1.2,1.7-2,2.5c-0.3,0.3-0.6,0.6-1,0.9c-0.3,0.3-0.7,0.5-1.1,0.8
			c-2.7,1.9-17.2,6.3-17.2,6.3c-0.1,0-8.6,2.2-9.2,2.4c-0.3,0.1-2.9,0.7-3.8,1c-0.3,0.1-0.7,0.2-1,0.2c-0.4,0.1-0.8,0.2-1.1,0.3
			c-1,0.2-1.9,0.4-2.8,0.6c-0.9,0.2-1.8,0.4-2.6,0.5s-1.6,0.3-2.3,0.4c-1.8,0.2-3.3,0.4-4.7,0.3c0.2,0.8,0.2,1.6,0.3,2.4
			c0,0,0,0,0,0c1,4.6,1.4,10.7,1.2,18.7c-0.1,2.2-0.2,4.5-0.4,7.1c0,0.3,0,0.7-0.1,1.1c-0.1,1-0.1,2-0.2,2.9c0,0,0,0,0,0
			c-0.1,1.6-0.2,3.2-0.4,4.7c0,0.3-0.1,0.6-0.1,0.9c-0.1,0.9-0.2,1.8-0.3,2.7v0c-0.1,0.9-0.2,1.8-0.3,2.7c-0.1,0.6-0.2,1.2-0.3,1.7
			c-0.1,0.6-0.2,1.1-0.3,1.7c-0.1,0.3-0.1,0.5-0.2,0.8c-0.2,0.8-0.4,1.6-0.6,2.4c-0.2,0.8-0.5,1.6-0.8,2.3c-0.2,0.5-0.4,1-0.6,1.5
			c-1.1,2.4-2.5,4.6-4.5,6.5c-0.4,0.4-0.8,0.7-1.2,1.1c0,0,0,0,0,0c-0.2,0.2-0.4,0.3-0.7,0.5c-0.7,0.5-1.4,1-2.2,1.5c0,0,0,0,0,0
			c-0.5,0.3-1,0.6-1.6,0.9c-0.9,0.4-1.7,0.8-2.7,1.2c-1.3,0.5-2.6,0.9-4.1,1.2c0,0,0,0,0,0c-0.3,0.1-0.5,0.1-0.8,0.2
			c-0.5,0.1-1.1,0.2-1.6,0.3c-0.5,0.1-1.1,0.2-1.7,0.3c0,0,0,0,0,0c-0.4,0.1-0.8,0.1-1.2,0.2c-1.2,0.2-2.5,0.3-3.9,0.4
			c-0.9,0.1-1.9,0.1-2.9,0.1c-2.1,0.1-4.2,0.1-6.6,0c-2.2-0.1-4.4-0.2-6.4-0.4c-0.7-0.1-1.3-0.1-2-0.2c-1-0.1-2.1-0.2-3-0.4
			c-1-0.1-1.9-0.3-2.9-0.5c-0.9-0.2-1.8-0.3-2.7-0.5c-0.4-0.1-0.9-0.2-1.3-0.3c-0.9-0.2-1.9-0.5-2.7-0.7c-0.3-0.1-0.6-0.2-0.9-0.3
			c-0.4-0.1-0.8-0.2-1.1-0.4c-0.7-0.2-1.5-0.5-2.1-0.8c-0.7-0.3-1.4-0.6-2-0.9c-1.3-0.6-2.5-1.3-3.6-2c-0.8-0.5-1.5-1-2.1-1.5
			c-0.3-0.3-0.7-0.5-1-0.8c-0.6-0.5-1.2-1.1-1.8-1.7c-2-2.1-3.6-4.4-4.8-7c-0.2-0.5-0.5-1-0.7-1.5c-2.3-5.5-3.2-12-3.7-19.1
			c-0.9-12.1-0.3-20.6,1.6-26.6c0,0,0,0,0,0s0,0,0,0c0.5-2.5,1.5-5.5,3.2-8.5c0.2-0.4-0.1-0.9-0.6-0.8c-2.6,0.6-6-0.2-10.9-2.1
			c-0.7-0.3-1.5-0.6-2.2-0.9c-0.3-0.1-0.5-0.2-0.8-0.3c-0.5-0.2-1.1-0.5-1.6-0.7h0c-1.7-0.8-3.6-1.6-5.6-2.5
			c-1.2-0.5-2.5-1.1-3.8-1.8c-1.8-0.8-3.4-1.6-5-2.3c-0.8-0.4-1.5-0.7-2.2-1.1c-0.7-0.4-1.4-0.7-2.1-1c0,0,0,0,0,0
			c-0.7-0.3-1.3-0.7-2-1c-4.7-2.4-8-4.5-10.2-7c-0.2-0.3-0.4-0.5-0.6-0.8c-0.7-0.9-1.2-1.9-1.7-3c-3.3-8.4,0.1-20.3,7-27.1
			c0.2-0.2,0.5-0.4,0.7-0.7c0.2-0.2,0.5-0.4,0.7-0.6c0.6-0.5,1.1-0.9,1.7-1.3c0.2-0.1,0.4-0.2,0.6-0.4c0.5-0.3,1.1-0.6,1.7-0.9
			c0.8-0.4,1.7-0.7,2.6-1c10.6-2.9,20,6.5,25.7,13.9c1.2-5.7,3-11,5.1-15c-3.1-2.7-5.3-6.4-6-10.4c-2.4-14.3,17.2-29.9,29-25.6
			c1.5,0.6,2.8,1.5,4,2.6c0.2,0.2,0.4,0.4,0.6,0.6c0.9,1,1.8,2.1,2.4,3.3c0,0,0,0,0,0c0.6,1,1,2,1.4,3.1c3.4-1.2,7.2-2,11.3-2.5
			c1.2-0.1,15.5-1.5,29.9,5.2L167.8,75.1"/>
		<path class="st1" d="M185.6,67.8c-0.9,0-1.9,0-3,0C183.7,67.8,184.7,67.8,185.6,67.8z"/>
		<path class="st1" d="M193.4,69.9c-0.7-0.4-1.4-0.7-2.1-1C192,69.2,192.7,69.5,193.4,69.9z"/>
	</g>
</g>
<g>
	<g>
		<path class="st2" d="M226.1,146.7c-3.5,5.8-11.1,7.9-26.2,11.8c-10.7,2.8-17.9,4.6-22.6,4.4c0.1,0.9,0.2,1.6,0.3,2.4c0,0,0,0,0,0
			c1.4,6,1.7,14.6,0.8,26.8c-1.6,21.6-1.2,40.1-39.7,38.8c-38.5-1.3-43.3-17.2-44.9-38.8c-0.9-12.1-0.3-20.6,1.6-26.6c0,0,0,0,0,0
			c0.5-2.5,1.5-5.5,3.2-8.5c0.2-0.4-0.1-0.9-0.6-0.8c-4.5,1.1-12-2.4-24.9-8.3c-14.2-6.6-21.4-9.8-23.8-16.2
			c-4.4-11.3,3-28.7,15.1-31.9c10.6-2.9,20,6.5,25.7,13.9c1.2-5.7,3-11,5.1-15c-3.1-2.7-5.3-6.4-6-10.4c-2.4-14.3,17.2-29.9,29-25.6
			c4,1.5,6.9,5.3,8.5,9.6c3.4-1.2,7.2-2,11.3-2.5c1.2-0.1,15.5-1.5,29.9,5.2c-0.3-6.2,12.3-7.4,18.2-7.1c16.7,1,27,25.4,19.5,40.1
			c-1.8,3.6-5.9,6.3-9.6,6.4c0.1,0.6,0.2,1.3,0.3,1.9c-1,0.7-2,1.4-2.9,2.1c0.9-0.7,1.9-1.4,2.9-2.1c6.2-4.2,13.8-6.9,20.8-3.6
			C228.2,117.9,232.3,136.4,226.1,146.7z"/>
		<path class="st2" d="M190.5,120.5c0.9-0.7,1.8-1.5,2.7-2.2C192.3,119,191.4,119.8,190.5,120.5z"/>
		<path class="st2" d="M196.1,116.2c-1,0.7-2,1.4-2.9,2.1C194.1,117.6,195.1,116.9,196.1,116.2z"/>
		<path class="st2" d="M190.5,120.5c0.9-0.7,1.8-1.5,2.7-2.2C192.3,119,191.4,119.8,190.5,120.5z"/>
		<path class="st2" d="M196.1,116.2c-1,0.7-2,1.4-2.9,2.1C194.1,117.6,195.1,116.9,196.1,116.2z"/>
	</g>
	<g>
		<path class="st3" d="M178.3,192.1c-1.6,21.6-1.2,40.1-39.7,38.8c-38.5-1.3-43.3-17.2-44.9-38.8c-0.9-12.1-0.3-20.6,1.6-26.6
			c-0.9,5.1,0.7,8.2,5.2,6c29.1-14.2,29.8,1.3,47.9,4.4c12.6,2.1,29.7,2.9,29-10.6C178.9,171.3,179.2,179.9,178.3,192.1z"/>
		<path class="st4" d="M97.8,94.2c-0.9,1.2-1.8,2.7-2.7,4.4c-3.1-2.7-5.3-6.4-6-10.4c-2.4-14.3,17.2-29.9,29-25.6
			c4,1.5,6.9,5.3,8.5,9.6C109.7,78,100.6,90.6,97.8,94.2z"/>
		<path class="st4" d="M226.1,146.7c-3.5,5.8-11.1,7.9-26.2,11.7c-10.7,2.7-17.9,4.6-22.6,4.4c0.2,0.8,0.2,1.6,0.3,2.4c0,0,0,0,0,0
			c0.7,13.5-16.4,12.7-29,10.6c-18.2-3.1-18.8-18.5-47.9-4.4c-4.5,2.2-6.1-0.9-5.2-6c0,0,0,0,0,0c0.5-2.5,1.5-5.4,3.2-8.5
			c0.2-0.4-0.1-0.9-0.6-0.8c-4.6,1.1-12.1-2.4-24.9-8.3c-14.2-6.6-21.4-9.8-23.8-16.3c-4.4-11.3,3.1-28.6,15.1-31.9
			c10.6-2.9,20,6.5,25.7,13.9c-1.3,6.4-1.8,13.2-0.6,19.1c2.2,11.1,7.9,14.7,13.6,17c0.5,0.2,2.9,1.1,4.1,1.5
			c1.1,0.4,2.2,0.8,3.3,1.1c27,9,51.4,5.4,55.1,4c1.4-0.5,2.8-1,4.3-1.4c0-0.2,0-0.5,0-0.8c0-0.2,0-0.4,0-0.6
			c0.1-0.5,0.1-1.1,0.2-1.7c0.2-1.2,0.5-2.4,0.9-3.6c2.1-6.8,6.8-14.5,11.7-20.1c1.7-1.9,6.8-7.7,13.4-12c6.2-4.1,13.7-6.9,20.8-3.6
			C228.2,117.9,232.3,136.4,226.1,146.7z"/>
		<path class="st3" d="M195.8,114.3h-0.1c-0.2,0-0.3,0-0.5,0c-0.2,0-0.5,0-0.7-0.1c-0.1,0-0.3,0-0.4-0.1c-0.2,0-0.4-0.1-0.6-0.2
			c-0.2-0.1-0.3-0.1-0.5-0.2c-1.2-0.5-2.2-1.5-3-3c-0.3-0.6-0.6-1.2-1-1.9c-0.8-1.3-1.7-2.8-2.7-4.4c-1.6-2.3-3.4-4.9-5.3-7.5
			c-0.4-0.5-0.8-1-1.1-1.6c-0.7-0.9-1.3-1.8-2-2.7c-0.3-0.5-0.7-0.9-1-1.4c-1.1-1.5-2.1-3-3.1-4.4c-0.3-0.4-0.5-0.8-0.8-1.2
			c-0.4-0.6-0.8-1.2-1.1-1.7c-0.1-0.2-0.3-0.4-0.4-0.6c-0.3-0.5-0.6-1-0.9-1.4c-0.1-0.2-0.2-0.4-0.4-0.7c-0.1-0.1-0.1-0.2-0.2-0.3
			c-0.1-0.1-0.1-0.2-0.2-0.3c-0.2-0.3-0.4-0.7-0.5-1c-0.2-0.3-0.3-0.7-0.5-1c-0.1-0.3-0.3-0.6-0.4-0.9c-0.1-0.3-0.2-0.6-0.3-0.9
			c-0.1-0.3-0.2-0.5-0.2-0.8c-0.1-0.2-0.1-0.5-0.1-0.7c0-0.1,0-0.2,0-0.3V75c-14.4-6.7-28.7-5.3-29.9-5.2c-4.1,0.5-7.9,1.3-11.3,2.5
			c-0.5,0.2-1,0.4-1.6,0.6c0,0-0.1,0-0.1,0c-0.2,0.1-0.5,0.2-0.7,0.3c-0.3,0.1-0.7,0.3-1,0.4c0,0-0.1,0-0.1,0
			c-0.2,0.1-0.4,0.2-0.6,0.3c-0.3,0.1-0.7,0.3-1,0.4c-0.2,0.1-0.5,0.2-0.7,0.3c-0.5,0.2-1,0.5-1.5,0.8c-0.9,0.5-1.8,1-2.6,1.5
			c-0.4,0.2-0.8,0.5-1.2,0.8c-0.8,0.5-1.6,1-2.4,1.6c-0.8,0.5-1.5,1.1-2.2,1.6c-0.7,0.5-1.4,1.1-2,1.6c-1.3,1.1-2.5,2.2-3.5,3.2
			l-0.8,0.8c-0.2,0.3-0.5,0.5-0.7,0.8c-0.5,0.5-0.9,1-1.4,1.5c-0.2,0.2-0.4,0.5-0.6,0.7c-0.4,0.5-0.8,0.9-1.1,1.3
			c-0.2,0.2-0.3,0.4-0.5,0.6c-0.4,0.4-0.7,0.9-1,1.3c-0.1,0.1-0.2,0.2-0.3,0.4c-0.1,0.2-0.2,0.3-0.3,0.5c-0.2,0.3-0.4,0.5-0.6,0.8
			c-0.2,0.3-0.5,0.6-0.7,0.9c0,0-0.1,0.1-0.1,0.1c0,0.1-0.1,0.2-0.2,0.2c0,0.1-0.1,0.2-0.1,0.2c-0.1,0.2-0.2,0.3-0.3,0.5
			c0,0.1-0.1,0.1-0.1,0.2c-0.1,0.1-0.1,0.2-0.2,0.4c-0.1,0.2-0.2,0.4-0.3,0.6c0,0,0,0,0,0c-0.1,0.2-0.2,0.4-0.3,0.5c0,0,0,0,0,0
			c-0.1,0.2-0.2,0.4-0.4,0.6c-2,4-3.9,9.3-5.1,15c-0.2,1-0.4,1.9-0.5,2.9c-0.1,0.5-0.2,1-0.2,1.5c-0.1,1-0.2,1.9-0.3,2.9
			c0,0,0,0,0,0c0,0.5-0.1,1-0.1,1.5c0,0,0,0.1,0,0.1c-0.1,2.2-0.1,4.5,0.1,6.6c0,0.3,0.1,0.6,0.1,0.9c0,0.3,0.1,0.6,0.1,0.9
			c0,0.3,0.1,0.6,0.1,0.9c0,0.3,0.1,0.6,0.2,0.9c0.1,0.4,0.1,0.7,0.2,1c0.1,0.3,0.1,0.7,0.2,1c0.3,1.3,0.7,2.4,1.1,3.5
			c0.1,0.3,0.2,0.5,0.3,0.8c0.1,0.2,0.2,0.5,0.3,0.7c0.1,0.2,0.2,0.5,0.4,0.7c0.1,0.2,0.2,0.5,0.4,0.7c0.1,0.2,0.3,0.4,0.4,0.6
			c0.1,0.2,0.3,0.4,0.4,0.6c0.1,0.2,0.3,0.4,0.4,0.6c0.1,0.2,0.3,0.4,0.4,0.6c0.3,0.3,0.6,0.7,0.9,1c1.2,1.3,2.5,2.3,3.9,3.1
			c0.3,0.2,0.7,0.4,1,0.6h0c0.3,0.2,0.7,0.4,1,0.5c0.4,0.2,0.7,0.3,1.1,0.5c0.4,0.2,0.7,0.3,1.1,0.4c0,0,0.1,0,0.2,0.1
			c0.1,0,0.2,0.1,0.4,0.1c0.2,0.1,0.3,0.1,0.5,0.2c0.1,0,0.2,0.1,0.3,0.1c0.1,0,0.1,0,0.2,0c0.2,0.1,0.3,0.1,0.5,0.2
			c0,0,0.1,0,0.1,0c0.1,0,0.2,0.1,0.3,0.1c0.2,0.1,0.4,0.1,0.6,0.2c0.2,0.1,0.4,0.2,0.6,0.2c0.2,0.1,0.4,0.1,0.5,0.2
			c0.5,0.2,0.9,0.3,1.4,0.5c0.5,0.2,0.9,0.3,1.4,0.5c0.5,0.2,0.9,0.3,1.4,0.5c0.9,0.3,1.8,0.6,2.7,0.8c0,0,0.1,0,0.1,0
			c0.1,0,0.1,0,0.2,0.1c0.8,0.2,1.7,0.5,2.5,0.7c0.9,0.2,1.8,0.5,2.7,0.7c0.9,0.2,1.8,0.4,2.7,0.6c0.4,0.1,0.9,0.2,1.3,0.3
			c0.5,0.1,0.9,0.2,1.3,0.3c0.6,0.1,1.1,0.2,1.6,0.3c1.6,0.3,3.2,0.5,4.8,0.8c0.6,0.1,1.1,0.1,1.7,0.2c0.6,0.1,1.1,0.1,1.7,0.2
			c1.7,0.2,3.3,0.3,4.9,0.4c1.1,0.1,2.1,0.1,3.1,0.2c0.5,0,1,0,1.5,0h0c0.3,0,0.5,0,0.8,0c0.3,0,0.5,0,0.8,0c1.5,0,3,0,4.4,0
			c0.7,0,1.4,0,2.1-0.1h0.1c0.8,0,1.6-0.1,2.3-0.1c1.1-0.1,2.1-0.2,3-0.3h0c0.5-0.1,0.9-0.1,1.3-0.1c0.1,0,0.1,0,0.2,0c0,0,0,0,0,0
			c0,0,0.1,0,0.2,0c0.2,0,0.4-0.1,0.6-0.1c0.3,0,0.7-0.1,1-0.1c0.4-0.1,0.7-0.1,1-0.2c0.5-0.1,0.9-0.2,1.3-0.2c0,0,0,0,0,0
			c0.2-0.1,0.4-0.1,0.6-0.1c0.1,0,0.3-0.1,0.4-0.1c0.2-0.1,0.4-0.1,0.6-0.2c0.2,0,0.3-0.1,0.5-0.1c0.1,0,0.1,0,0.2-0.1
			c0.7-0.2,1.4-0.5,2.1-0.7c0.7-0.2,1.5-0.5,2.2-0.7c0-0.1,0-0.2,0-0.4c0-0.3,0-0.7,0.1-1c0-0.5,0.1-1.1,0.2-1.7
			c0-0.3,0.1-0.6,0.2-0.9c0.1-0.6,0.3-1.2,0.5-1.8c0.1-0.3,0.2-0.6,0.3-0.9c0.3-0.8,0.6-1.7,0.9-2.6c0.3-0.9,0.7-1.7,1.1-2.6
			c0.2-0.4,0.4-0.9,0.6-1.3c0.2-0.4,0.4-0.9,0.7-1.3c0.7-1.3,1.4-2.6,2.2-3.8c0.3-0.5,0.6-0.9,0.9-1.4c1.7-2.5,3.5-4.9,5.3-7
			c0.3-0.3,0.6-0.7,1-1.1c0.2-0.2,0.4-0.4,0.5-0.6c0.1-0.1,0.2-0.2,0.3-0.3c0.2-0.2,0.4-0.5,0.6-0.7c0.2-0.2,0.5-0.5,0.7-0.7
			l0.4-0.4c0.1-0.1,0.3-0.3,0.4-0.4c0.1-0.2,0.3-0.3,0.4-0.4c1-1,2.1-2,3.3-3c0.3-0.3,0.7-0.6,1-0.9c0.2-0.2,0.4-0.3,0.6-0.5
			c0.2-0.2,0.4-0.4,0.7-0.5c0.7-0.5,1.4-1.1,2.2-1.6c0.4-0.3,0.8-0.6,1.2-0.8C196.1,115.5,196,114.9,195.8,114.3z M124.9,126.1
			c-2.3-1.1-2.7-5.3-1.1-6.8c1.9-1.6,6.9,0.5,7.1,2.9C131,124.3,127.3,127.2,124.9,126.1z M104.6,118.7c-3.4-2.1-5.9-7.1-5.6-10.5
			c0.2-2,1.1-4,2.6-5.9c2.9-3.6,7.6-6.5,11.8-7c3.1-0.3,5.8,0.2,7.7,1.5c1.7,1.2,2.8,2.9,3.1,5.1
			C125.7,110.5,110.9,122.6,104.6,118.7z M170.6,120.8c-1.5,4.2-5.3,6.8-9,7.1c-8.8,0.8-18.3-12.2-15.6-20.1
			c1.6-5.2,8.2-7.9,13.5-6.8C167.3,102.6,173.1,113.2,170.6,120.8z"/>
		<path class="st4" d="M205.5,107.9c-1.8,3.6-5.9,6.3-9.6,6.3c-2.4,0-4.6-1-5.8-3.6c-4.7-9.6-21.7-28.5-22.2-35.6c0,0,0-0.1,0-0.1
			c-0.3-6.2,12.3-7.4,18.2-7.1C202.7,68.8,213,93.3,205.5,107.9z"/>
	</g>
	<path class="st5" d="M104.6,118.7c-3.4-2.1-5.9-7.1-5.6-10.5c0.2-2,1.1-4,2.6-5.9c2.9-3.6,7.6-6.5,11.8-7c3.1-0.3,5.8,0.2,7.7,1.5
		c1.7,1.2,2.8,2.9,3.1,5.1C125.7,110.5,110.9,122.6,104.6,118.7z"/>
	<path class="st5" d="M170.6,120.8c-1.5,4.2-5.3,6.8-9,7.1c-8.8,0.8-18.3-12.2-15.6-20.1c1.6-5.2,8.2-7.9,13.5-6.8
		C167.3,102.6,173.1,113.2,170.6,120.8z"/>
	<path class="st5" d="M130.8,122.2c0.2,2.1-3.5,5-6,3.9c-2.3-1.1-2.7-5.3-1.1-6.8C125.7,117.7,130.6,119.8,130.8,122.2z"/>
</g>
</svg>
