<?xml version="1.0" encoding="utf-8"?>
<!-- Generator: Adobe Illustrator 24.2.3, SVG Export Plug-In . SVG Version: 6.00 Build 0)  -->
<svg version="1.1" id="レイヤー_1" xmlns="http://www.w3.org/2000/svg" xmlns:xlink="http://www.w3.org/1999/xlink" x="0px"
	 y="0px" viewBox="0 0 283.5 180.3" style="enable-background:new 0 0 283.5 180.3;" xml:space="preserve">
<style type="text/css">
	.st0{stroke:#000000;stroke-miterlimit:10;}
	.st1{fill:#FFFFFF;stroke:#000000;stroke-miterlimit:10;}
	.st2{fill:#FFFFFF;stroke:#040000;stroke-width:0.6173;stroke-linecap:round;stroke-linejoin:round;stroke-miterlimit:10;}
	.st3{clip-path:url(#SVGID_2_);}
	.st4{fill:#FFFFFF;}
	.st5{fill:#050101;}
	.st6{fill:#070505;}
	.st7{fill:#FFFFFF;stroke:#000000;stroke-linecap:round;stroke-miterlimit:10;}
</style>
<g>
	<path class="st0" d="M83.1,53.9c-4.7-0.7-8.8-4.7-9.5-9.2c-1.5-8.9,10.7-18.6,18-15.9c4.2,1.6,6.4,7.2,6.2,11.6
		C97.4,47.9,90.4,55,83.1,53.9z"/>
	<path class="st0" d="M77.3,65.1c-1.6-2.6-9.6-15.9-19.1-13.3c-7.5,2-12.1,12.8-9.4,19.8c1.5,4,6,6,14.8,10.1
		c9.5,4.4,14.3,6.6,16.9,4.5C84.5,83,81.6,72,77.3,65.1z"/>
	<path class="st0" d="M100.5,111.8c-2.3-0.2-2.9-1.6-12.6-0.2c-4.6,0.7-11.6,3.6-14.7,3.3c-6.9-0.6-5.1-4-8.5-4.2
		c-7.7-0.4-4.8,19.4-3.7,21.7c3.1,6.7,6.2,4.2,18.7,3.2c9-0.7,23.1,0.3,29.3-6.6C115.5,121.7,108.2,112.6,100.5,111.8z"/>
	<path class="st1" d="M123.4,80.4c8.1,7.6,5.2,20.3,8.1,30.4c2.1,7.5,0.8,13.1-2.8,17.1c-10.8,12.2-41,10.3-50.4,3.8
		c-4.7-3.3-5.5-10.3-5.7-18.5c-0.2-9.5,3.8-23.3,9.7-30.1C92,71.8,112.9,70.6,123.4,80.4z"/>
	<path class="st0" d="M125.1,82.9c10.2,18.2-4.5,17.9-14.6,16.2c-11.3-1.9-11.7-11.5-29.8-2.7c-5.2,2.5-4.2-6.3,1.6-13.2
		C92,71.8,118.1,70.4,125.1,82.9z"/>
	<path class="st0" d="M121.4,114.5c-2.2-0.3-2.8-1.6-12.1-0.3c-4.4,0.6-11.1,3.5-14.1,3.2c-6.6-0.6-4.9-4-8.1-4.3
		c-7.4-0.5-4.5,19.3-3.4,21.7c3,6.7,6,4.2,18,3.3c8.6-0.6,22.2,0.5,28-6.4C135.9,124.4,128.8,115.3,121.4,114.5z"/>
	<path class="st1" d="M103.9,33.2C88.8,34.9,81.1,45.7,79,48.4c-3.3,4.2-6.9,15.5-5.2,23.9c1.7,8.6,6.7,9.9,11,11.5
		c17.6,6.5,33.9,4.1,36.3,3.2c5.9-2.1,13.8-3.3,17.6-12.4c5.2-12.1-3.3-27.1-4.5-28.6C123.5,31.3,105,33.1,103.9,33.2z"/>
	<path class="st0" d="M133.8,32c-3.7-0.2-11.6,0.6-11.3,4.5c0.3,4.4,10.9,16.1,13.8,22.1c1.9,4.1,7.8,2,9.6-1.7
		C150.6,47.8,144.2,32.6,133.8,32z"/>
	<path class="st0" d="M131.8,69.5c2.1-2.3,12.3-13.9,21.2-9.7c7,3.3,9.6,14.8,5.7,21.2c-2.2,3.6-6.9,4.9-16.3,7.3
		c-10.1,2.6-15.2,3.9-17.5,1.4C121.5,85.9,126.4,75.6,131.8,69.5z"/>
	<path class="st0" d="M88.6,49.1c-3.9,0.5-8.6,4.3-8.9,8c-0.2,2.1,1.4,5.2,3.5,6.5c3.9,2.4,13.1-5.1,12.1-10.4
		C94.9,50.3,92.2,48.7,88.6,49.1z"/>
	<path class="st0" d="M117.3,52.6c-3.3-0.7-7.4,1-8.4,4.2c-1.7,4.9,4.2,13,9.7,12.5c2.3-0.2,4.7-1.8,5.6-4.4
		C125.8,60.2,122.2,53.6,117.3,52.6z"/>
	<path class="st0" d="M95.1,64c-1,0.9-0.7,3.5,0.7,4.2c1.5,0.7,3.8-1.1,3.7-2.4C99.4,64.3,96.3,63,95.1,64z"/>
</g>
<g>
	<g>
		<g>
			<path class="st2" d="M118.9,171.8L118.9,171.8c0,1.3,1,2.4,2.3,2.4H231c1.3,0,2.3-1.1,2.3-2.4l0-0.2 M217.2,142.3V80.4h-82.6
				v61.9H217.2L217.2,142.3z M222,113.6c1.2,0,2.2-1,2.2-2.2s-1-2.2-2.2-2.2s-2.2,1-2.2,2.2S220.8,113.6,222,113.6L222,113.6z
				 M130.3,111.8c0.3,0,0.5-0.2,0.5-0.5c0-0.3-0.2-0.5-0.5-0.5c-0.3,0-0.5,0.2-0.5,0.5C129.8,111.6,130.1,111.8,130.3,111.8
				L130.3,111.8z M216.2,146.3h5.8c2,0,3.7-1.6,3.7-3.7V80c0-2-1.6-3.7-3.7-3.7h-92.3c-2,0-3.7,1.6-3.7,3.7v62.6
				c0,2,1.6,3.7,3.7,3.7h6.2 M216.3,146.8h6c2.1,0,3.9-1.7,3.9-3.9V79.7c0-2.1-1.7-3.9-3.9-3.9h-92.9c-2.1,0-3.9,1.7-3.9,3.9v63.2
				c0,2.1,1.7,3.9,3.9,3.9h6.4 M218.4,168.5l-0.2-0.8c-0.1-0.2-0.4-0.4-0.8-0.4h-4.6c-0.4,0-0.6,0.2-0.5,0.4l0.2,0.8
				c0.1,0.2,0.4,0.4,0.7,0.4h4.6C218.2,169,218.5,168.8,218.4,168.5L218.4,168.5z M219,170.6l-0.2-0.8c-0.1-0.2-0.4-0.5-0.8-0.5
				h-4.6c-0.4,0-0.6,0.2-0.5,0.5l0.2,0.8c0.1,0.3,0.4,0.5,0.8,0.5h4.7C218.8,171.1,219,170.9,219,170.6L219,170.6z M211.8,170.6
				l-0.2-0.8c-0.1-0.2-0.4-0.5-0.7-0.5h-4.6c-0.4,0-0.6,0.2-0.6,0.5l0.1,0.8c0,0.3,0.4,0.5,0.7,0.5h4.7
				C211.6,171.1,211.9,170.9,211.8,170.6L211.8,170.6z M225.7,170.6l-0.2-0.8c-0.1-0.2-0.4-0.5-0.8-0.5h-4.6c-0.4,0-0.6,0.2-0.5,0.5
				l0.2,0.8c0.1,0.3,0.4,0.5,0.8,0.5h4.7C225.6,171.1,225.8,170.9,225.7,170.6L225.7,170.6z M219.8,150.8l-0.2-0.6
				c-0.1-0.2-0.4-0.4-0.7-0.4h-4.1c-0.3,0-0.5,0.2-0.5,0.4l0.2,0.6c0.1,0.2,0.4,0.4,0.7,0.4h4.1C219.6,151.2,219.9,151,219.8,150.8
				L219.8,150.8z M213,151.2C213,151.2,213,151.2,213,151.2c0.1,0,0.1,0,0.1,0c0.3,0,0.4-0.2,0.4-0.4l-0.2-0.6
				c-0.1-0.2-0.3-0.4-0.7-0.4h-4.1c-0.3,0-0.5,0.2-0.5,0.4l0.1,0.6c0,0.2,0.3,0.4,0.7,0.4h0.8H213L213,151.2z M207.1,150.8l-0.1-0.6
				c0-0.2-0.3-0.4-0.6-0.4h-4.1c-0.3,0-0.5,0.2-0.5,0.4l0.1,0.6c0,0.2,0.3,0.4,0.6,0.4h1h3.1C206.9,151.2,207.2,151,207.1,150.8
				L207.1,150.8z M200.3,151.2C200.3,151.2,200.3,151.2,200.3,151.2c0.1,0,0.2,0,0.2,0c0.2-0.1,0.3-0.2,0.3-0.3l-0.1-0.6
				c0-0.2-0.3-0.4-0.6-0.4H196c-0.3,0-0.6,0.2-0.5,0.4l0.1,0.6c0,0.2,0.3,0.4,0.6,0.4h1.2H200.3L200.3,151.2z M194.5,150.8l-0.1-0.6
				c0-0.2-0.3-0.4-0.6-0.4h-4.1c-0.3,0-0.6,0.2-0.5,0.4l0.1,0.6c0,0.2,0.3,0.4,0.6,0.4h4.1C194.3,151.2,194.5,151,194.5,150.8
				L194.5,150.8z M188.1,150.8l-0.1-0.6c0-0.2-0.3-0.4-0.6-0.4h-4.1c-0.3,0-0.6,0.2-0.6,0.4l0,0.6c0,0.2,0.3,0.4,0.6,0.4h4.1
				C187.9,151.2,188.1,151,188.1,150.8L188.1,150.8z M181.8,150.8l0-0.6c0-0.2-0.3-0.4-0.6-0.4h-4.1c-0.3,0-0.6,0.2-0.6,0.4l0,0.6
				c0,0.2,0.3,0.4,0.6,0.4h4.1C181.6,151.2,181.8,151,181.8,150.8L181.8,150.8z M175.5,150.8l0-0.6c0-0.2-0.3-0.4-0.6-0.4h-4.1
				c-0.3,0-0.6,0.2-0.6,0.4l0,0.6c0,0.2,0.2,0.4,0.6,0.4h4.1C175.2,151.2,175.5,151,175.5,150.8L175.5,150.8z M169.1,150.8l0-0.6
				c0-0.2-0.2-0.4-0.6-0.4h-4.1c-0.3,0-0.6,0.2-0.6,0.4l-0.1,0.6c0,0.2,0.2,0.4,0.5,0.4h4.1C168.9,151.2,169.1,151,169.1,150.8
				L169.1,150.8z M162.8,150.8l0.1-0.6c0-0.2-0.2-0.4-0.5-0.4h-4.1c-0.3,0-0.6,0.2-0.6,0.4l-0.1,0.6c0,0.2,0.2,0.4,0.5,0.4h4.1
				C162.5,151.2,162.8,151,162.8,150.8L162.8,150.8z M156.5,150.8l0.1-0.6c0-0.2-0.2-0.4-0.5-0.4h-4.1c-0.3,0-0.6,0.2-0.6,0.4
				l-0.1,0.6c0,0.2,0.2,0.4,0.5,0.4h4.1C156.2,151.2,156.4,151,156.5,150.8L156.5,150.8z M150.1,150.8l0.1-0.6
				c0-0.2-0.2-0.4-0.5-0.4h-4.1c-0.3,0-0.6,0.2-0.6,0.4l-0.1,0.6c0,0.2,0.2,0.4,0.5,0.4h4.1C149.8,151.2,150.1,151,150.1,150.8
				L150.1,150.8z M143.8,150.8l0.1-0.6c0-0.2-0.2-0.4-0.5-0.4h-4.1c-0.3,0-0.6,0.2-0.7,0.4l-0.2,0.6c-0.1,0.2,0.2,0.4,0.5,0.4h4.1
				C143.5,151.2,143.8,151,143.8,150.8L143.8,150.8z M137.5,150.8l0.2-0.6c0.1-0.2-0.2-0.4-0.5-0.4h-4.1c-0.3,0-0.6,0.2-0.7,0.4
				l-0.2,0.6c-0.1,0.2,0.2,0.4,0.5,0.4h4.1C137.1,151.2,137.4,151,137.5,150.8L137.5,150.8z M204.3,163.1
				C204.3,163.1,204.3,163.1,204.3,163.1c-0.2,0-0.2,0-0.3,0c-0.5,0.1-0.8,0.4-0.7,0.7l0.4,2.1c0.1,0.4,0.7,0.8,1.3,0.8h3.2
				c0.7,0,1.1-0.4,1-0.8l-0.4-2.1c-0.1-0.4-0.7-0.8-1.3-0.8H204.3L204.3,163.1z M204.9,170.3l-0.4-2.2c-0.1-0.5-0.7-0.8-1.3-0.8H200
				c-0.7,0-1.1,0.4-1.1,0.8l0.3,2.2c0.1,0.5,0.7,0.8,1.3,0.8h3.3C204.5,171.2,205,170.8,204.9,170.3L204.9,170.3z M197.7,163.1
				c-0.1,0-0.1,0-0.2,0c0,0-0.1,0-0.1,0c-0.5,0.1-0.8,0.4-0.7,0.7l0.3,2.1c0.1,0.4,0.6,0.8,1.3,0.8h3.2c0.7,0,1.1-0.4,1.1-0.8
				l-0.3-2.1c-0.1-0.4-0.6-0.8-1.3-0.8H197.7L197.7,163.1z M191.1,163.1C191.1,163.1,191,163.1,191.1,163.1c-0.1,0-0.2,0-0.2,0
				c-0.5,0.1-0.9,0.4-0.9,0.8l0.2,2.1c0,0.4,0.6,0.8,1.3,0.8h3.2c0.7,0,1.1-0.4,1.1-0.8l-0.3-2.1c-0.1-0.4-0.6-0.8-1.3-0.8H191.1
				L191.1,163.1z M188.9,166l-0.2-2.1c0-0.4-0.6-0.8-1.2-0.8h-3.1c0,0,0,0,0,0c0,0-0.1,0-0.1,0c-0.6,0-1,0.4-1,0.8l0.1,2.1
				c0,0.4,0.6,0.8,1.2,0.8h3.2C188.5,166.8,189,166.4,188.9,166L188.9,166z M182.2,166l-0.1-2.1c0-0.4-0.5-0.8-1.2-0.8c0,0,0,0,0,0
				h-3.1c-0.1,0-0.1,0-0.2,0c0,0-0.1,0-0.1,0c-0.5,0.1-0.9,0.4-0.9,0.8l0,2.1c0,0.4,0.5,0.8,1.2,0.8h3.2
				C181.7,166.8,182.2,166.4,182.2,166L182.2,166z M175.5,166l0-2.1c0-0.4-0.5-0.8-1.1-0.8c0,0,0,0,0,0h-3.1c0,0,0,0-0.1,0
				c0,0-0.1,0-0.1,0c-0.6,0-1,0.4-1,0.8l-0.1,2.1c0,0.4,0.5,0.8,1.2,0.8h3.2C174.9,166.8,175.5,166.4,175.5,166L175.5,166z
				 M198,170.4l-0.3-2.2c-0.1-0.5-0.6-0.8-1.3-0.8h-4.2c-0.7,0-1.2,0.4-1.1,0.8l0.2,2.2c0,0.5,0.6,0.8,1.3,0.8h4.3
				C197.6,171.2,198.1,170.8,198,170.4L198,170.4z M181,167.3h-6.8h-6.8h-6.8h-3.9c-0.7,0-1.2,0.4-1.3,0.8l-0.3,2.2
				c-0.1,0.5,0.4,0.8,1.1,0.8H189c0.7,0,1.2-0.4,1.1-0.8l-0.2-2.2c0-0.5-0.6-0.8-1.3-0.8h-0.9H181L181,167.3z M153.8,170.4l0.3-2.2
				c0.1-0.5-0.4-0.8-1.1-0.8h-4.2c-0.7,0-1.3,0.4-1.3,0.8l-0.4,2.2c-0.1,0.5,0.4,0.8,1.1,0.8h4.3
				C153.1,171.2,153.7,170.8,153.8,170.4L153.8,170.4z M145.8,170.4l0.4-2.2c0.1-0.5-0.4-0.8-1-0.8H142c-0.7,0-1.3,0.4-1.4,0.8
				l-0.5,2.2c-0.1,0.5,0.4,0.8,1,0.8h3.3C145.1,171.2,145.8,170.8,145.8,170.4L145.8,170.4z M138.9,170.4l0.5-2.2
				c0.1-0.5-0.4-0.8-1-0.8h-3.2c-0.7,0-1.3,0.4-1.4,0.8l-0.6,2.2c-0.1,0.5,0.3,0.8,1,0.8h3.3C138.2,171.2,138.8,170.8,138.9,170.4
				L138.9,170.4z M132,170.4l0.6-2.2c0.1-0.5-0.3-0.8-1-0.8h-3.2c-0.7,0-1.3,0.4-1.4,0.8l-0.7,2.2c-0.1,0.5,0.3,0.8,1,0.8h3.3
				C131.2,171.2,131.9,170.8,132,170.4L132,170.4z M168.7,166l0.1-2.1c0-0.4-0.4-0.8-1.1-0.8c0,0,0,0-0.1,0h-3.1c0,0-0.1,0-0.1,0
				c0,0-0.1,0-0.1,0c-0.5,0.1-1,0.4-1,0.8l-0.2,2.1c0,0.4,0.5,0.8,1.1,0.8h3.2C168.1,166.8,168.7,166.4,168.7,166L168.7,166z
				 M162,166l0.2-2.1c0-0.4-0.4-0.7-1-0.8c0,0-0.1,0-0.1,0h-3.1c-0.1,0-0.2,0-0.2,0c-0.5,0.1-1,0.4-1,0.8l-0.3,2.1
				c-0.1,0.4,0.4,0.8,1.1,0.8h3.2C161.4,166.8,161.9,166.4,162,166L162,166z M151.3,163.1c-0.1,0-0.2,0-0.2,0c-0.5,0.1-1,0.4-1,0.8
				l-0.3,2.1c-0.1,0.4,0.4,0.8,1.1,0.8h3.2c0.7,0,1.2-0.4,1.3-0.8l0.3-2.1c0.1-0.4-0.4-0.8-1.1-0.8H151.3L151.3,163.1z M144.7,163.1
				c-0.1,0-0.2,0-0.2,0c-0.5,0.1-1,0.4-1.1,0.8l-0.4,2.1c-0.1,0.4,0.4,0.8,1,0.8h3.2c0.7,0,1.2-0.4,1.3-0.8l0.4-2.1
				c0.1-0.4-0.4-0.8-1-0.8c0,0,0,0,0,0H144.7L144.7,163.1z M211.5,161.8l-0.4-2c-0.1-0.4-0.7-0.7-1.3-0.7h-1.6h-1.4
				c-0.6,0-1.1,0.3-1,0.7l0.4,2c0.1,0.4,0.7,0.8,1.3,0.8h0h3.1c0,0,0,0,0,0C211.2,162.6,211.6,162.2,211.5,161.8L211.5,161.8z
				 M204.9,161.8l-0.4-2c-0.1-0.4-0.6-0.7-1.3-0.7h-1.6h-1.4c-0.6,0-1.1,0.3-1,0.7l0.3,2c0.1,0.4,0.6,0.8,1.3,0.8h0h3.1
				c0.1,0,0.2,0,0.3,0C204.7,162.5,205,162.2,204.9,161.8L204.9,161.8z M193.8,159.1c-0.6,0-1.1,0.3-1.1,0.7l0.2,2
				c0,0.4,0.6,0.8,1.2,0.8h0h3.1c0,0,0,0,0.1,0c0,0,0,0,0.1,0c0.6,0,1-0.4,0.9-0.8l-0.3-2c-0.1-0.4-0.6-0.7-1.2-0.7h-1.6H193.8
				L193.8,159.1z M191.8,161.8l-0.2-2c0-0.4-0.6-0.7-1.2-0.7h-1.6h-1.5c-0.6,0-1.1,0.3-1.1,0.7l0.1,2c0,0.4,0.6,0.8,1.2,0.8h3.1
				c0,0,0.1,0,0.1,0c0.1,0,0.1,0,0.2,0C191.5,162.5,191.8,162.2,191.8,161.8L191.8,161.8z M180.9,159.1c-0.6,0-1.1,0.3-1.1,0.7l0,2
				c0,0.4,0.5,0.8,1.2,0.8h3.1c0.1,0,0.1,0,0.2,0c0.1,0,0.1,0,0.2,0c0.5-0.1,0.8-0.4,0.8-0.7l-0.1-2c0-0.4-0.5-0.7-1.2-0.7h-1.5
				H180.9L180.9,159.1z M174.4,159.1c-0.6,0-1.1,0.3-1.1,0.7l0,2c0,0.4,0.5,0.8,1.1,0.8h3.1c0,0,0,0,0,0c0,0,0,0,0.1,0
				c0.6,0,1-0.4,1-0.8l0-2c0-0.4-0.5-0.7-1.1-0.7h-1.5H174.4L174.4,159.1z M172,161.8l0.1-2c0-0.4-0.5-0.7-1.1-0.7h-1.5h-1.5
				c-0.6,0-1.1,0.3-1.2,0.7l-0.1,2c0,0.4,0.4,0.7,1,0.8c0,0,0,0,0.1,0h3.1c0,0,0.1,0,0.1,0c0,0,0.1,0,0.1,0
				C171.6,162.5,172,162.2,172,161.8L172,161.8z M161.5,159.1c-0.6,0-1.2,0.3-1.2,0.7l-0.2,2c0,0.4,0.4,0.7,1,0.8c0,0,0.1,0,0.1,0
				h3.1c0,0,0,0,0.1,0c0,0,0,0,0.1,0c0.6,0,1-0.4,1.1-0.8l0.1-2c0-0.4-0.5-0.7-1.1-0.7H163H161.5L161.5,159.1z M158.9,161.8l0.2-2
				c0-0.4-0.4-0.7-1-0.7h-1.5H155c-0.6,0-1.2,0.3-1.2,0.7l-0.3,2c-0.1,0.4,0.4,0.7,0.9,0.8c0,0,0.1,0,0.1,0h3.1c0,0,0,0,0,0
				C158.3,162.6,158.8,162.2,158.9,161.8L158.9,161.8z M152.3,161.8l0.3-2c0.1-0.4-0.4-0.7-1-0.7h-1.5h-1.6c-0.6,0-1.2,0.3-1.3,0.7
				l-0.4,2c-0.1,0.4,0.3,0.7,0.9,0.8c0,0,0.1,0,0.1,0h3.1h0C151.7,162.6,152.3,162.2,152.3,161.8L152.3,161.8z M139.3,161.8l0.5-2
				c0.1-0.4-0.3-0.7-1-0.7h-1.7h-6.3c-0.6,0-1.2,0.3-1.3,0.7l-0.6,2c-0.1,0.4,0.3,0.8,0.9,0.8h8.1
				C138.6,162.6,139.2,162.2,139.3,161.8L139.3,161.8z M145.7,161.8l0.4-2c0.1-0.4-0.4-0.7-1-0.7h-1.4h-1.6c-0.6,0-1.2,0.3-1.3,0.7
				l-0.5,2c-0.1,0.4,0.3,0.7,0.8,0.7c0,0,0.1,0,0.1,0c0,0,0.1,0,0.1,0h3.1C145.1,162.6,145.7,162.2,145.7,161.8L145.7,161.8z
				 M210.7,163.1c0,0-0.1,0-0.1,0c-0.6,0-1,0.4-0.9,0.8l0.4,2.1c0.1,0.4,0.7,0.8,1.4,0.8h11.9c0.7,0,1.1-0.4,0.9-0.8l-0.6-2.1
				c-0.1-0.4-0.7-0.8-1.4-0.8h-0.2H210.7L210.7,163.1z M223.1,161.7l-0.6-2c-0.1-0.4-0.7-0.7-1.3-0.7H221h-6.4h-1.2
				c-0.6,0-1.1,0.3-1,0.7l0.5,2c0.1,0.4,0.7,0.8,1.3,0.8h8C222.8,162.5,223.2,162.2,223.1,161.7L223.1,161.7z M221.9,157.9l-0.6-1.9
				c-0.1-0.4-0.7-0.7-1.3-0.7h-0.1h-2.8c-0.6,0-1,0.3-0.9,0.7l0.5,1.9c0.1,0.4,0.7,0.7,1.3,0.7h3C221.6,158.7,222,158.3,221.9,157.9
				L221.9,157.9z M215.5,157.9L215,156c-0.1-0.3-0.5-0.6-1-0.7c0,0-0.1,0-0.1,0c0,0-0.1,0-0.1,0h-3c0,0-0.1,0-0.1,0c0,0-0.1,0-0.1,0
				c-0.5,0.1-0.8,0.3-0.7,0.7l0.4,1.9c0.1,0.4,0.7,0.7,1.3,0.7h3C215.2,158.7,215.6,158.3,215.5,157.9L215.5,157.9z M209.1,157.9
				l-0.4-1.9c-0.1-0.4-0.6-0.7-1.2-0.7h0h0h-3c0,0-0.1,0-0.1,0c0,0-0.1,0-0.1,0c-0.5,0.1-0.8,0.3-0.8,0.7l0.3,1.9
				c0.1,0.4,0.6,0.7,1.3,0.7h3C208.8,158.7,209.2,158.3,209.1,157.9L209.1,157.9z M202.7,157.9l-0.3-1.9c-0.1-0.4-0.6-0.7-1.2-0.7
				c0,0,0,0,0,0h-3c-0.1,0-0.1,0-0.2,0c-0.1,0-0.1,0-0.1,0c-0.4,0.1-0.7,0.4-0.7,0.7l0.3,1.9c0.1,0.4,0.6,0.7,1.2,0.7h3
				C202.3,158.7,202.8,158.3,202.7,157.9L202.7,157.9z M196.3,157.9L196,156c-0.1-0.4-0.6-0.7-1.2-0.7c0,0,0,0,0,0h-3
				c-0.1,0-0.1,0-0.2,0c-0.5,0.1-0.9,0.3-0.9,0.7l0.2,1.9c0,0.4,0.6,0.7,1.2,0.7h3C195.9,158.7,196.3,158.3,196.3,157.9L196.3,157.9
				z M189.9,157.9l-0.2-1.9c0-0.4-0.5-0.7-1.1-0.7c0,0,0,0-0.1,0h-3c-0.1,0-0.1,0-0.2,0c0,0-0.1,0-0.1,0c-0.5,0.1-0.8,0.3-0.8,0.7
				l0.1,1.9c0,0.4,0.5,0.7,1.2,0.7h3C189.4,158.7,189.9,158.3,189.9,157.9L189.9,157.9z M183.5,157.9l-0.1-1.9
				c0-0.4-0.5-0.7-1.1-0.7c0,0,0,0-0.1,0h-3c0,0,0,0-0.1,0c0,0-0.1,0-0.1,0c-0.5,0-1,0.3-0.9,0.7l0,1.9c0,0.4,0.5,0.7,1.1,0.7h3
				C183,158.7,183.5,158.3,183.5,157.9L183.5,157.9z M177,157.9l0-1.9c0-0.4-0.5-0.7-1-0.7c0,0-0.1,0-0.1,0h-3c0,0-0.1,0-0.1,0
				c0,0-0.1,0-0.1,0c-0.5,0.1-0.9,0.3-0.9,0.7l-0.1,1.9c0,0.4,0.5,0.7,1.1,0.7h3C176.5,158.7,177,158.3,177,157.9L177,157.9z
				 M170.6,157.9l0.1-1.9c0-0.4-0.5-0.7-1.1-0.7h-3c0,0,0,0,0,0c0,0-0.1,0-0.1,0c-0.6,0-1,0.3-1,0.7l-0.1,1.9c0,0.4,0.5,0.7,1.1,0.7
				h3C170.1,158.7,170.6,158.3,170.6,157.9L170.6,157.9z M164.2,157.9l0.1-1.9c0-0.4-0.4-0.7-1-0.7c0,0,0,0,0,0h-3c0,0,0,0,0,0
				c-0.1,0-0.1,0-0.2,0c-0.5,0.1-0.9,0.3-1,0.7l-0.2,1.9c0,0.4,0.4,0.7,1,0.7h3C163.7,158.7,164.2,158.3,164.2,157.9L164.2,157.9z
				 M157.8,157.9l0.2-1.9c0-0.4-0.4-0.7-1-0.7c0,0,0,0,0,0h-3c-0.1,0-0.2,0-0.2,0c-0.5,0.1-0.9,0.3-1,0.7l-0.3,1.9
				c-0.1,0.4,0.4,0.7,1,0.7h3C157.2,158.7,157.8,158.3,157.8,157.9L157.8,157.9z M151.4,157.9l0.3-1.9c0.1-0.4-0.4-0.7-0.9-0.7
				c0,0,0,0,0,0h-3c0,0-0.1,0-0.1,0c0,0,0,0-0.1,0c-0.5,0.1-1,0.3-1.1,0.7l-0.4,1.9c-0.1,0.4,0.4,0.7,1,0.7h3
				C150.8,158.7,151.3,158.3,151.4,157.9L151.4,157.9z M129.8,163.1c-0.6,0-1.3,0.3-1.4,0.8l-0.6,2.1c-0.1,0.4,0.3,0.8,0.9,0.8h11.4
				c0.7,0,1.3-0.4,1.4-0.8l0.5-2.1c0.1-0.4-0.3-0.7-0.8-0.8c0,0-0.1,0-0.1,0c0,0-0.1,0-0.1,0H138H129.8L129.8,163.1z M138.5,157.9
				l0.5-1.9c0.1-0.4-0.3-0.7-0.8-0.7c0,0-0.1,0-0.1,0h-6c-0.6,0-1.2,0.3-1.3,0.7l-0.6,1.9c-0.1,0.4,0.3,0.7,0.9,0.7h6.1
				C137.8,158.7,138.4,158.3,138.5,157.9L138.5,157.9z M145,157.9l0.4-1.9c0.1-0.4-0.3-0.7-0.9-0.7c0,0,0,0-0.1,0h-3c0,0,0,0,0,0
				c0,0-0.1,0-0.1,0c-0.6,0-1.1,0.3-1.2,0.7l-0.5,1.9c-0.1,0.4,0.3,0.7,1,0.7h3C144.3,158.7,144.9,158.3,145,157.9L145,157.9z
				 M220.8,154.2l-0.5-1.8c-0.1-0.4-0.7-0.7-1.3-0.7h-5.7c0,0-0.1,0-0.1,0c0,0-0.1,0-0.1,0c-0.5,0.1-0.8,0.3-0.7,0.7l0.4,1.8
				c0.1,0.3,0.6,0.6,1.1,0.7c0.1,0,0.1,0,0.2,0h5.8C220.5,154.9,220.9,154.6,220.8,154.2L220.8,154.2z M211.4,154.2l-0.4-1.8
				c-0.1-0.4-0.6-0.7-1.2-0.7h-2.9c0,0-0.1,0-0.1,0c-0.5,0-0.9,0.3-0.8,0.7l0.4,1.8c0.1,0.4,0.6,0.7,1.2,0.7h3c0,0,0.1,0,0.1,0
				c0,0,0.1,0,0.1,0C211.1,154.9,211.4,154.6,211.4,154.2L211.4,154.2z M205.1,154.2l-0.4-1.8c-0.1-0.4-0.6-0.7-1.2-0.7h-2.9
				c0,0-0.1,0-0.1,0c-0.1,0-0.1,0-0.2,0c-0.4,0.1-0.7,0.3-0.7,0.6l0.3,1.8c0.1,0.4,0.6,0.7,1.2,0.7c0,0,0,0,0,0h3c0,0,0.1,0,0.1,0
				c0,0,0.1,0,0.1,0C204.8,154.9,205.2,154.6,205.1,154.2L205.1,154.2z M198.8,154.2l-0.3-1.8c-0.1-0.4-0.6-0.7-1.2-0.7h-2.9
				c-0.6,0-1,0.3-1,0.7l0.2,1.8c0,0.4,0.6,0.7,1.2,0.7h3c0,0,0,0,0,0c0,0,0.1,0,0.1,0C198.5,154.9,198.9,154.6,198.8,154.2
				L198.8,154.2z M192.6,154.2l-0.2-1.8c0-0.4-0.6-0.7-1.1-0.7h-2.9c-0.6,0-1.1,0.3-1,0.7l0.1,1.8c0,0.4,0.5,0.7,1.2,0.7h3
				c0,0,0.1,0,0.1,0c0,0,0,0,0,0C192.2,154.9,192.6,154.6,192.6,154.2L192.6,154.2z M185.3,154.9
				C185.3,154.9,185.3,154.9,185.3,154.9c0.1,0,0.1,0,0.1,0c0.6,0,1-0.3,0.9-0.7l-0.1-1.8c0-0.4-0.5-0.7-1.1-0.7h-2.9
				c-0.6,0-1.1,0.3-1.1,0.7l0.1,1.8c0,0.4,0.5,0.7,1.1,0.7H185.3L185.3,154.9z M180.1,154.2l0-1.8c0-0.4-0.5-0.7-1.1-0.7H176
				c-0.6,0-1.1,0.3-1.1,0.7l0,1.8c0,0.4,0.5,0.7,1.1,0.7h3c0,0,0.1,0,0.1,0c0,0,0.1,0,0.1,0C179.7,154.9,180.1,154.6,180.1,154.2
				L180.1,154.2z M169.7,154.9h3c0,0,0,0,0,0c0,0,0.1,0,0.1,0c0.6,0,1-0.3,1-0.7l0-1.8c0-0.4-0.5-0.7-1.1-0.7h-2.9
				c-0.6,0-1.1,0.3-1.1,0.7l-0.1,1.8c0,0.4,0.4,0.7,1,0.7C169.7,154.9,169.7,154.9,169.7,154.9L169.7,154.9z M167.5,154.2l0.1-1.8
				c0-0.4-0.4-0.7-1-0.7h-2.9c-0.6,0-1.1,0.3-1.1,0.7l-0.2,1.8c0,0.4,0.4,0.7,0.9,0.7c0,0,0.1,0,0.1,0h3c0,0,0.1,0,0.1,0
				c0,0,0.1,0,0.1,0C167.1,154.9,167.5,154.6,167.5,154.2L167.5,154.2z M161.3,154.2l0.2-1.8c0-0.4-0.4-0.7-1-0.7h-2.9
				c-0.6,0-1.1,0.3-1.2,0.7l-0.2,1.8c0,0.4,0.3,0.7,0.9,0.7h0c0,0,0.1,0,0.1,0h3c0.1,0,0.1,0,0.2,0
				C160.8,154.9,161.2,154.6,161.3,154.2L161.3,154.2z M155,154.2l0.3-1.8c0.1-0.4-0.4-0.7-1-0.7h-2.9c-0.6,0-1.1,0.3-1.2,0.7
				l-0.3,1.8c-0.1,0.4,0.3,0.7,0.9,0.7c0,0,0.1,0,0.1,0h3C154.4,154.9,155,154.6,155,154.2L155,154.2z M144.5,154.9c0,0,0.1,0,0.1,0
				h3c0,0,0.1,0,0.1,0c0.6,0,1.1-0.3,1.1-0.7l0.3-1.8c0.1-0.4-0.4-0.7-1-0.7h-2.9c-0.6,0-1.1,0.3-1.2,0.7l-0.4,1.8
				C143.6,154.6,143.9,154.9,144.5,154.9C144.5,154.9,144.5,154.9,144.5,154.9L144.5,154.9z M142.5,154.2l0.4-1.8
				c0.1-0.4-0.3-0.7-0.9-0.7h-2.9c-0.6,0-1.2,0.3-1.2,0.7l-0.5,1.8c-0.1,0.4,0.3,0.7,0.8,0.7c0,0,0,0,0,0c0,0,0.1,0,0.1,0h3
				c0,0,0,0,0.1,0c0,0,0.1,0,0.1,0C142,154.9,142.4,154.6,142.5,154.2L142.5,154.2z M136.2,154.2l0.5-1.8c0.1-0.4-0.3-0.7-0.9-0.7
				h-2.9c-0.6,0-1.2,0.3-1.3,0.7l-0.5,1.8c-0.1,0.4,0.3,0.7,0.9,0.7h3C135.6,154.9,136.1,154.6,136.2,154.2L136.2,154.2z
				 M216.3,146.8l-0.1-0.5l0-0.1c0-0.1-0.2-0.2-0.5-0.2h-79.2c-0.2,0-0.4,0.1-0.5,0.2l0,0.1l-0.1,0.5l-0.5,1.6l0,0
				c0,0.1,0.1,0.2,0.3,0.2h80.7c0.2,0,0.4-0.1,0.3-0.2l0,0L216.3,146.8L216.3,146.8z M216.8,148.5h5.6c1.7,0,3.4,0.9,3.8,1.9l7,20.7
				c0.1,0.2,0.1,0.4,0.1,0.6c0,1.1-1.2,2-2.9,2H121.8c-1.7,0-2.8-0.8-2.9-1.9c0,0,0-0.1,0-0.1c0-0.2,0-0.4,0.1-0.6l7-20.7
				c0.4-1.1,2.1-1.9,3.8-1.9h5.6"/>
		</g>
	</g>
	<g>
		<defs>
			<rect id="SVGID_1_" x="162.2" y="99" width="27.1" height="27.1"/>
		</defs>
		<clipPath id="SVGID_2_">
			<use xlink:href="#SVGID_1_"  style="overflow:visible;"/>
		</clipPath>
		<g class="st3">
			<path class="st4" d="M162.5,105.8c0,1.7,0.4,3.3,1.1,4.8c2,4.2,4.8,7.7,8.4,10.6c2.5,2,5.2,3.4,8.2,4.2c1.6,0.4,3.1,0.5,4.7,0
				c1.3-0.4,2.4-1.1,3.1-2.3c0.5-0.7,0.7-1.6,0.8-2.4c0.2-1.1-0.1-1.9-1.1-2.5c-0.4-0.2-0.8-0.5-1.3-0.7c-1-0.5-2-1.1-3-1.5
				c-0.4-0.2-0.9-0.2-1.3,0c-0.4,0.2-0.7,0.5-0.9,0.9c-0.3,0.5-0.6,1-0.9,1.4c-0.7,0.9-1.4,1.1-2.5,0.7c-1-0.4-1.8-1-2.7-1.6
				c-1.6-1.1-3-2.5-4.2-4.1c-0.5-0.7-1-1.3-1.4-2.1c-0.5-0.9-0.4-1.8,0.3-2.5c0.2-0.2,0.4-0.5,0.7-0.7c0.7-0.7,0.9-1.5,0.6-2.5
				c-0.4-1.2-0.9-2.2-1.3-3.4c-0.3-0.6-0.5-1.3-0.8-1.9c-0.3-0.6-0.9-0.9-1.5-0.9c-1.4-0.1-2.5,0.4-3.3,1.5
				C163,102.3,162.5,104,162.5,105.8z M187.8,108c0.3-0.3,0.7-0.7,1-1c0.1-0.1,0.1-0.2,0.1-0.4c-0.8-1.8-1.9-3.4-3.3-4.7
				c-1.2-1.1-2.5-1.9-3.9-2.5c-0.1-0.1-0.2-0.1-0.3,0.1c-0.3,0.3-0.6,0.6-0.9,0.9c-0.1,0.1-0.1,0.1,0,0.2c0.4,0.2,0.8,0.3,1.1,0.5
				C184.5,102.6,186.5,104.9,187.8,108z M185.2,108.8c0.3-0.3,0.6-0.7,1-1c0.1-0.1,0.1-0.2,0.1-0.4c-0.5-1.1-1.1-2-1.9-2.9
				c-1-1.1-2.1-1.9-3.5-2.4c-0.1,0-0.1-0.1-0.2,0c-0.3,0.4-0.7,0.7-1.1,1.1C182.2,104.2,184,106.1,185.2,108.8z M182.6,109.5
				c0.4-0.4,0.7-0.7,1-1.1c0.1-0.1,0.1-0.2,0-0.3c-0.7-1.6-1.9-2.8-3.5-3.5c-0.1-0.1-0.2,0-0.3,0.1c-0.3,0.3-0.5,0.6-0.8,0.8
				c-0.1,0.1-0.2,0.2,0,0.3c0.9,0.4,1.7,1,2.4,1.8C181.9,108.2,182.2,108.8,182.6,109.5z"/>
			<path class="st5" d="M162.5,105.8c0-1.9,0.5-3.6,1.7-5c0.9-1.1,2-1.6,3.3-1.5c0.7,0,1.2,0.3,1.5,0.9c0.4,0.6,0.5,1.3,0.8,1.9
				c0.4,1.1,1,2.2,1.3,3.4c0.3,1,0.1,1.8-0.6,2.5c-0.2,0.2-0.4,0.5-0.7,0.7c-0.7,0.8-0.8,1.6-0.3,2.5c0.4,0.8,0.9,1.4,1.4,2.1
				c1.2,1.6,2.6,3,4.2,4.1c0.9,0.6,1.7,1.2,2.7,1.6c1.1,0.4,1.8,0.2,2.5-0.7c0.4-0.4,0.6-0.9,0.9-1.4c0.2-0.4,0.5-0.7,0.9-0.9
				c0.4-0.2,0.9-0.1,1.3,0c1.1,0.4,2,1,3,1.5c0.4,0.2,0.8,0.5,1.3,0.7c1,0.6,1.3,1.4,1.1,2.5c-0.2,0.9-0.4,1.7-0.8,2.4
				c-0.7,1.2-1.8,1.8-3.1,2.3c-1.6,0.6-3.1,0.4-4.7,0c-3.1-0.8-5.8-2.3-8.2-4.2c-3.6-2.9-6.5-6.4-8.4-10.6
				C162.9,109.1,162.5,107.5,162.5,105.8z"/>
			<path class="st6" d="M187.8,108c-1.3-3-3.4-5.3-6.2-6.9c-0.4-0.2-0.7-0.4-1.1-0.5c-0.1,0-0.1-0.1,0-0.2c0.3-0.3,0.6-0.6,0.9-0.9
				c0.1-0.1,0.2-0.1,0.3-0.1c1.4,0.6,2.7,1.5,3.9,2.5c1.4,1.3,2.5,2.9,3.3,4.7c0.1,0.2,0.1,0.2-0.1,0.4
				C188.5,107.3,188.2,107.6,187.8,108z"/>
			<path class="st6" d="M185.2,108.8c-1.1-2.6-3-4.5-5.6-5.6c0.4-0.4,0.7-0.7,1.1-1.1c0.1-0.1,0.2,0,0.2,0c1.3,0.6,2.5,1.4,3.5,2.4
				c0.8,0.9,1.4,1.8,1.9,2.9c0.1,0.2,0.1,0.3-0.1,0.4C185.8,108.1,185.5,108.4,185.2,108.8z"/>
			<path class="st6" d="M182.6,109.5c-0.3-0.7-0.7-1.4-1.2-1.9c-0.7-0.8-1.4-1.4-2.4-1.8c-0.2-0.1-0.2-0.1,0-0.3
				c0.3-0.3,0.6-0.5,0.8-0.8c0.1-0.1,0.2-0.1,0.3-0.1c1.6,0.7,2.8,1.9,3.5,3.5c0,0.1,0.1,0.2,0,0.3
				C183.2,108.8,182.9,109.2,182.6,109.5z"/>
		</g>
	</g>
</g>
<g>
	<path class="st7" d="M71.7,25c-6.5-0.5-11.1,2.9-12.1,8.5"/>
	<path class="st7" d="M69.9,18.8c-9-0.7-15.4,4-16.9,11.9"/>
	<path class="st7" d="M69,11.8c-12.1-1-20.7,5.4-22.7,16"/>
</g>
</svg>
