<?xml version="1.0" encoding="utf-8"?>
<!-- Generator: Adobe Illustrator 24.2.3, SVG Export Plug-In . SVG Version: 6.00 Build 0)  -->
<svg version="1.1" id="レイヤー_1" xmlns="http://www.w3.org/2000/svg" xmlns:xlink="http://www.w3.org/1999/xlink" x="0px"
	 y="0px" viewBox="0 0 283.5 225.9" style="enable-background:new 0 0 283.5 225.9;" xml:space="preserve">
<style type="text/css">
	.st0{fill:#FFFFFF;stroke:#000000;stroke-miterlimit:10;}
</style>
<path class="st0" d="M157.5,93.1c-1.9,34.9-30.3,63.2-65.1,65c-16.3,0.9-31.3-3.9-43.5-12.5c-0.7-0.5-1.5-0.7-2.4-0.5l-20.2,4.4
	c-0.8,0.2-1.6-0.6-1.3-1.4l6-18.9c0.3-0.9,0.1-1.9-0.4-2.7c-7.4-11.5-11.5-25.4-10.9-40.2c1.5-35.4,30.1-64.2,65.5-66
	C126.2,18.4,159.8,52.1,157.5,93.1z"/>
<path class="st0" d="M154.4,156.6c1.4,25.8,22.3,46.6,48.1,48c12,0.6,23.1-2.9,32.1-9.3c0.5-0.4,1.1-0.5,1.8-0.4l14.9,3.3
	c0.6,0.1,1.2-0.4,1-1.1l-4.4-13.9c-0.2-0.7-0.1-1.4,0.3-2c5.5-8.5,8.5-18.7,8-29.7c-1.1-26.1-22.2-47.4-48.4-48.7
	C177.5,101.4,152.7,126.3,154.4,156.6z"/>
</svg>
