<?xml version="1.0" encoding="utf-8"?>
<!-- Generator: Adobe Illustrator 24.2.3, SVG Export Plug-In . SVG Version: 6.00 Build 0)  -->
<svg version="1.1" id="レイヤー_1" xmlns="http://www.w3.org/2000/svg" xmlns:xlink="http://www.w3.org/1999/xlink" x="0px"
	 y="0px" viewBox="0 0 283.5 283.5" style="enable-background:new 0 0 283.5 283.5;" xml:space="preserve">
<style type="text/css">
	.st0{fill:#FFFFFF;stroke:#000000;stroke-width:2;stroke-miterlimit:10;}
</style>
<path class="st0" d="M221.8,128.3c0-19.2-16-34.8-35.6-34.8c-3.3,0-6.4,0.4-9.4,1.2c-1.4-18-16.8-32.2-35.6-32.2
	c-19,0-34.6,14.6-35.6,32.9c-2.7-0.6-5.5-1-8.4-1c-19.7,0-35.6,15.6-35.6,34.8c0,14.9,9.5,27.5,23,32.5c-3.4,5.3-5.3,11.6-5.3,18.3
	c0,19.2,16,34.8,35.6,34.8c11,0,20.9-4.9,27.4-12.5c6.5,7,15.9,11.4,26.4,11.4c19.7,0,35.6-15.6,35.6-34.8c0-6.7-1.9-12.9-5.3-18.2
	C212.4,155.7,221.8,143.1,221.8,128.3z M136.4,102.9c0-2.8,2.2-5.1,5-5.1c2.7,0,5,2.3,5,5.1s-2.2,5.2-5,5.2
	C138.7,108.1,136.4,105.8,136.4,102.9z M151.2,143.6c-4.9,0.8-10.1-0.6-10-1.8c0,0,0-0.1,0-0.1c-1-0.7-1.9-8.6-1.3-16.6
	c0.1-1,0.6-7.1,1.4-7.1c0.7,0,1.4,4.2,1.6,7.2c0.6,6.7-0.2,13.6-1,15.8c1.6-0.8,5.5-1.3,9.4-0.8c0.6,0.1,4.3,0.6,4.3,1.5
	C155.6,142.5,153,143.3,151.2,143.6z M160.1,114.9c-2.2,0-4-1.8-4-4.1s1.8-4.1,4-4.1c2.2,0,4,1.8,4,4.1S162.3,114.9,160.1,114.9z
	 M173.4,127.4c-1.9,0-3.5-1.6-3.5-3.6c0-2,1.6-3.6,3.5-3.6s3.5,1.6,3.5,3.6C176.8,125.8,175.3,127.4,173.4,127.4z M181,141.6
	c-0.2,1.4-1.5,2.3-2.8,2.1c-1.3-0.2-2.3-1.5-2-2.9c0.2-1.4,1.5-2.3,2.8-2.1C180.3,139,181.2,140.3,181,141.6z"/>
</svg>
