<?xml version="1.0" encoding="utf-8"?>
<!-- Generator: Adobe Illustrator 24.2.3, SVG Export Plug-In . SVG Version: 6.00 Build 0)  -->
<svg version="1.1" id="レイヤー_1" xmlns="http://www.w3.org/2000/svg" xmlns:xlink="http://www.w3.org/1999/xlink" x="0px"
	 y="0px" viewBox="0 0 283.5 181.6" style="enable-background:new 0 0 283.5 181.6;" xml:space="preserve">
<style type="text/css">
	.st0{stroke:#FFFFFF;stroke-width:0.5;stroke-miterlimit:10;}
	.st1{fill:none;stroke:#FFFFFF;stroke-width:0.5;stroke-miterlimit:10;}
	.st2{fill:#FFFFFF;stroke:#000000;stroke-width:0.5;stroke-miterlimit:10;}
	.st3{fill:#9FA0A0;}
	.st4{fill:none;stroke:#000000;stroke-miterlimit:10;}
	.st5{fill:none;stroke:#000000;stroke-width:0.75;stroke-miterlimit:10;}
	.st6{font-family:'mgenplus-1pp-medium';}
	.st7{font-size:9.2789px;}
</style>
<g>
	<g>
		<circle class="st0" cx="124.5" cy="161.5" r="8.2"/>
		<circle class="st1" cx="124.5" cy="161.5" r="8.2"/>
	</g>
	<g>
		<circle class="st0" cx="102.8" cy="149" r="8.2"/>
		<circle class="st1" cx="102.8" cy="149" r="8.2"/>
	</g>
	<g>
		<circle class="st0" cx="86.7" cy="129.7" r="8.2"/>
		<circle class="st1" cx="86.7" cy="129.7" r="8.2"/>
	</g>
	<g>
		<circle class="st0" cx="78.2" cy="106.1" r="8.2"/>
		<circle class="st1" cx="78.2" cy="106.1" r="8.2"/>
	</g>
	<g>
		<circle class="st2" cx="78.2" cy="81" r="8.2"/>
		<circle class="st2" cx="78.2" cy="81" r="8.2"/>
	</g>
	<g>
		<circle class="st2" cx="86.8" cy="57.5" r="8.2"/>
		<circle class="st2" cx="86.8" cy="57.5" r="8.2"/>
	</g>
	<g>
		<circle class="st2" cx="103" cy="38.3" r="8.2"/>
		<circle class="st2" cx="103" cy="38.3" r="8.2"/>
	</g>
	<g>
		<circle class="st2" cx="124.7" cy="25.8" r="8.2"/>
		<circle class="st2" cx="124.7" cy="25.8" r="8.2"/>
	</g>
	<g>
		<circle class="st0" cx="149.5" cy="21.4" r="8.2"/>
		<circle class="st1" cx="149.5" cy="21.4" r="8.2"/>
	</g>
	<g>
		<circle class="st0" cx="174.2" cy="25.8" r="8.2"/>
		<circle class="st1" cx="174.2" cy="25.8" r="8.2"/>
	</g>
	<g>
		<circle class="st0" cx="195.9" cy="38.4" r="8.2"/>
		<circle class="st1" cx="195.9" cy="38.4" r="8.2"/>
	</g>
	<g>
		<circle class="st3" cx="212" cy="57.7" r="8.2"/>
		<circle class="st3" cx="212" cy="57.7" r="8.2"/>
	</g>
	<g>
		<circle class="st0" cx="220.5" cy="81.3" r="8.2"/>
		<circle class="st1" cx="220.5" cy="81.3" r="8.2"/>
	</g>
	<g>
		<circle class="st0" cx="220.5" cy="106.3" r="8.2"/>
		<circle class="st1" cx="220.5" cy="106.3" r="8.2"/>
	</g>
	<g>
		<circle class="st0" cx="211.8" cy="129.9" r="8.2"/>
		<circle class="st1" cx="211.8" cy="129.9" r="8.2"/>
	</g>
	<g>
		<circle class="st0" cx="195.7" cy="149.1" r="8.2"/>
		<circle class="st1" cx="195.7" cy="149.1" r="8.2"/>
	</g>
	<g>
		<circle class="st0" cx="173.9" cy="161.6" r="8.2"/>
		<circle class="st1" cx="173.9" cy="161.6" r="8.2"/>
	</g>
	<g>
		<circle class="st0" cx="149.2" cy="165.9" r="8.2"/>
		<circle class="st1" cx="149.2" cy="165.9" r="8.2"/>
	</g>
	<g>
		<circle class="st0" cx="124.5" cy="161.5" r="8.2"/>
		<circle class="st1" cx="124.5" cy="161.5" r="8.2"/>
	</g>
	<circle class="st4" cx="211.8" cy="57.6" r="10.1"/>
</g>
<polyline class="st5" points="72.3,103.9 58.8,85.5 14,85.5 "/>
<text transform="matrix(1 0 0 1 14.7829 79.3927)" class="st6 st7">recording</text>
<polyline class="st5" points="214.1,48.3 225.2,29.9 262.5,29.9 "/>
<text transform="matrix(1 0 0 1 228.4335 24.7713)" class="st6 st7">playing</text>
</svg>
