<?xml version="1.0" encoding="utf-8"?>
<!-- Generator: Adobe Illustrator 24.2.3, SVG Export Plug-In . SVG Version: 6.00 Build 0)  -->
<svg version="1.1" id="レイヤー_1" xmlns="http://www.w3.org/2000/svg" xmlns:xlink="http://www.w3.org/1999/xlink" x="0px"
	 y="0px" viewBox="0 0 283.5 247.6" style="enable-background:new 0 0 283.5 247.6;" xml:space="preserve">
<style type="text/css">
	.st0{fill:none;stroke:#040000;stroke-width:0.6936;stroke-linecap:round;stroke-linejoin:round;stroke-miterlimit:10;}
</style>
<g>
	<g>
		<path class="st0" d="M133.1,135.5L133.1,135.5h4.3c0.3,0,0.5-0.2,0.5-0.5V28.2c0-0.3-0.2-0.5-0.5-0.5H76.7c-0.3,0-0.5,0.2-0.5,0.5
			V135c0,0.3,0.2,0.5,0.5,0.5h26.5h0 M94.6,19.7c-0.6,0-1,0.5-1,1c0,0.6,0.5,1,1,1c0.6,0,1-0.5,1-1C95.6,20.1,95.1,19.7,94.6,19.7
			L94.6,19.7z M112.7,20.5c0-0.3-0.3-0.6-0.6-0.6h-11.6c-0.3,0-0.6,0.3-0.6,0.6c0,0.3,0.2,0.6,0.6,0.6h11.6
			C112.4,21,112.7,20.8,112.7,20.5L112.7,20.5z M141.2,136.4V59.6V21.4c0-4.9-4-8.8-8.8-8.8H81.6c-4.9,0-8.8,4-8.8,8.8V93v17v9.2v16
			v7.1c0,4.9,4,8.8,8.8,8.8h3h12.8 M146.5,135.8c1-3,2.9-8.4,3-9.6c0.1-1.5,0.6-7.6,1.3-9.2 M103.2,135.5c-3.5,1.1-9.6,4-8.8,10.2
			c0.3,2.3,1.4,4.1,3,5.4c3.8,3.2,10.4,3.7,14.5,4c5.7,0.4,14.2-0.7,15.5-0.7c1.4,0,19,5.3,19.6,6.1c0.7,0.8,0,0,8.6,10.2
			c8.6,10.2,23.6,12.4,26.7,14.9 M133.1,135.5c-2.6-0.3-5.2-0.6-6.8-0.8c-4-0.4-5.3-0.4-6.3-0.4c-1,0-13.2,0.5-14.6,0.7
			c-0.3,0-1.2,0.2-2.2,0.5 M133.1,135.5c3.1,0.4,6.2,0.7,8.1,0.9c0.6,0,1,0.1,1.2,0.1c0.9,0,2.4-0.3,4.1-0.6
			c1.8-0.4,3.7-0.7,5.3-0.8c3-0.1,7,0,7.4,0 M72.7,93c-3,0.6-9.3,2.1-12,4c-3.2,2.2-2.8,5.9-0.8,9.5c1.4,2.6,8.8,3.3,12.8,3.5
			 M72.7,119.2c-3.4,1.2-10,2.6-10.6,2.7c-0.8,0.2-4.6,1.6-3.4,7.7c1,5.1,10.7,5.5,14,5.6 M141.2,59.6c1.8,1.2,3.4,2.6,4.1,3.4
			c1,1.2,4.9,6.9,5.3,8.3c0.4,1.4,2.4,7.5,4.1,11.5c1.7,3.9,4.6,10.5,5.8,12.4c1.1,1.9,5.4,6.9,6.1,8c0.7,1.1,2.8,5,3.3,5.8
			c0.5,0.8,8.1,9.7,9.9,12.1c1.8,2.4,6.5,9.1,8.1,11.1c1.6,1.9,5.3,5.6,8.6,8.1s12.7,9.6,17.7,13.8c5,4.2,12.8,10.8,16.4,16.4
			c3.6,5.5,9.3,15.7,10.8,18.2c1.6,2.5,23.9,47.6,23.9,47.6 M205.5,244.2c0,0-4.1-23.8-7.9-31.7c-3.7-7.9-9.4-15.6-9.4-15.6
			s-1.1-0.3-4.4-1c-3.3-0.7-15.3-6.7-18.5-8.1c-3.2-1.4-28.2-21-29.2-21.4c-1-0.4-11.2-5.7-12.5-6c-1.2-0.3-15.7-1.1-16.9-1.5
			c0,0-10.6,3.1-12.1,3.1c0,0-16.4,6.5-20.1,2.4c-3.8-4.2,0.7-7.5,1.5-8.1c0.8-0.6,6.9-3.5,7.4-4.2c0.1-0.2,0.6-0.6,1.2-1"/>
	</g>
</g>
</svg>
