<?xml version="1.0" encoding="utf-8"?>
<!-- Generator: Adobe Illustrator 24.2.3, SVG Export Plug-In . SVG Version: 6.00 Build 0)  -->
<svg version="1.1" id="レイヤー_1" xmlns="http://www.w3.org/2000/svg" xmlns:xlink="http://www.w3.org/1999/xlink" x="0px"
	 y="0px" viewBox="0 0 283.5 139.5" style="enable-background:new 0 0 283.5 139.5;" xml:space="preserve">
<style type="text/css">
	.st0{fill:#FFFFFF;stroke:#000000;stroke-width:0.5;stroke-miterlimit:10;}
	.st1{fill:none;stroke:#000000;stroke-width:0.25;stroke-miterlimit:10;}
	.st2{fill:none;stroke:#000000;stroke-width:2;stroke-linecap:round;stroke-miterlimit:10;}
	.st3{fill:#F7F8F8;stroke:#000000;stroke-width:0.5;stroke-miterlimit:10;}
	.st4{font-family:'mgenplus-1pp-bold';}
	.st5{font-size:6.7108px;}
	.st6{font-family:'mgenplus-1pp-regular';}
	.st7{font-size:6.1516px;}
	.st8{fill:none;stroke:#000000;stroke-miterlimit:10;}
	.st9{fill:none;stroke:#000000;stroke-miterlimit:10;stroke-dasharray:2.873,2.873;}
	.st10{fill:none;stroke:#000000;stroke-width:0.5;stroke-miterlimit:10;}
</style>
<g>
	<path class="st0" d="M211.8,132H31.1c-2.3,0-4.2-1.9-4.2-4.2V27.1c0-2.3,1.9-4.2,4.2-4.2h180.6c2.3,0,4.2,1.9,4.2,4.2v100.7
		C215.9,130.1,214.1,132,211.8,132z"/>
	<polygon class="st0" points="131.1,75.9 116.4,84.3 116.4,67.4 	"/>
	<path class="st1" d="M207.1,119.6H35.8c-0.7,0-1.3-0.6-1.3-1.3v-0.5c0-0.7,0.6-1.3,1.3-1.3h171.3c0.7,0,1.3,0.6,1.3,1.3v0.5
		C208.5,119,207.9,119.6,207.1,119.6z"/>
	<line class="st2" x1="58.9" y1="118" x2="83.4" y2="118"/>
	<line class="st2" x1="96.7" y1="118" x2="121.2" y2="118"/>
	<line class="st2" x1="157" y1="118" x2="181.5" y2="118"/>
	<g>
		<g>
			<g>
				<path class="st3" d="M267.3,25h-75.2c-1.6,0-3.1,0.6-4.3,1.6l-26.7,24.8c-2.4,2.1-2.4,5.4,0,7.5l26.7,26.7
					c1.1,1,2.7,1.5,4.3,1.5h75.2c3.3,0,6-2.4,6-5.3V30.3C273.4,27.4,270.7,25,267.3,25z"/>
			</g>
		</g>
		<g>
			<g>
				<path class="st3" d="M268.1,16.3h-75.2c-1.6,0-3.1,0.6-4.3,1.6l-26.7,24.8c-2.4,2.1-2.4,5.4,0,7.5l26.7,26.7
					c1.1,1,2.7,1.5,4.3,1.5h75.2c3.3,0,6-2.4,6-5.3V21.6C274.1,18.7,271.4,16.3,268.1,16.3z"/>
			</g>
		</g>
		<g>
			<g>
				<path class="st0" d="M268.8,7.1h-75.2c-1.6,0-3.1,0.6-4.3,1.6l-26.7,24.8c-2.4,2.1-2.4,5.4,0,7.5l26.7,26.7
					c1.1,1,2.7,1.5,4.3,1.5h75.2c3.3,0,6-2.4,6-5.3V12.4C274.8,9.5,272.1,7.1,268.8,7.1z M176.3,41.1c-2.4,0-4.3-1.9-4.3-4.3
					s1.9-4.3,4.3-4.3c2.4,0,4.3,1.9,4.3,4.3S178.7,41.1,176.3,41.1z"/>
			</g>
			<text transform="matrix(1 0 0 1 199.5361 25.1929)" class="st4 st5">HH:MM:SS.XX</text>
			<text transform="matrix(1 0 0 1 198.915 37.8521)" class="st6 st7">player data </text>
			<text transform="matrix(1 0 0 1 198.915 46.7521)" class="st6 st7">action data </text>
			<text transform="matrix(1 0 0 1 198.915 55.7521)" class="st6 st7">result data </text>
			<g>
				<g>
					<line class="st8" x1="196.5" y1="29" x2="198" y2="29"/>
					<line class="st9" x1="200.9" y1="29" x2="256.9" y2="29"/>
					<line class="st8" x1="258.4" y1="29" x2="259.9" y2="29"/>
				</g>
			</g>
		</g>
	</g>
	<circle class="st10" cx="121.5" cy="75.9" r="16.4"/>
</g>
</svg>
