<?xml version="1.0" encoding="utf-8"?>
<!-- Generator: Adobe Illustrator 24.2.3, SVG Export Plug-In . SVG Version: 6.00 Build 0)  -->
<svg version="1.1" id="レイヤー_1" xmlns="http://www.w3.org/2000/svg" xmlns:xlink="http://www.w3.org/1999/xlink" x="0px"
	 y="0px" viewBox="0 0 283.5 180.5" style="enable-background:new 0 0 283.5 180.5;" xml:space="preserve">
<style type="text/css">
	.st0{fill:#FFFFFF;stroke:#000000;stroke-width:3;stroke-miterlimit:10;}
	.st1{fill:#FFFFFF;stroke:#040000;stroke-width:0.5;stroke-linecap:round;stroke-linejoin:round;stroke-miterlimit:10;}
	.st2{fill:#898989;}
	.st3{stroke:#040000;stroke-width:0.5;stroke-linecap:round;stroke-linejoin:round;stroke-miterlimit:10;}
</style>
<path class="st0" d="M32.3,117.1h136.3c6.7,0,12-5.4,12-12v-83c0-6.7-5.4-12-12-12H32.3c-6.7,0-12,5.4-12,12v83
	C20.2,111.7,25.6,117.1,32.3,117.1z"/>
<g>
	<g>
		<path class="st1" d="M146.4,83.9c0.2-0.1,0.5-0.1,0.8-0.2c0.6-0.1,1.3-0.1,2.2,0c0.7,0.1,1.8,0.8,2.8,1.6c0.2,0.2,0.4,0.3,0.6,0.5
			c0.3,0.2,0.6,0.5,0.8,0.7 M147.3,85.8c-0.1-0.1-0.5-1-0.9-1.9c-0.4-0.7-0.7-1.5-1-1.9c-0.6-0.9-1.6-1.6-3.1-2.3
			c-1.4-0.7-3.1-0.5-5.1-0.4s-2.2,0-4.2-0.5c-1.7-0.5-4.1-0.2-5.1-0.1 M130.8,83.4c0,0-1.8-3.3-2.9-4.7c-0.2-0.2-0.3-0.4-0.4-0.6
			c-1.2-1.6-4.1-7.3-5.5-9.4s-4.5-4.8-4.9-5.8s-3.8-8.4-8-6.9s-0.6,8.9,0.2,10.1c0.8,1.2,6.8,13,8.2,15.9c1.4,2.9,1.6,7.5,2.6,12.8
			c0.4,2.1,0.7,3.6,0.9,4.7l0,0c0.3,1.8,0.5,3,0.5,4.6 M153.5,86.6c0.7-0.3,1.3-0.5,2.6-0.5s3.8,0.7,5.1,1.9s2.4,3.3,3.1,6.5
			c0.7,3.2,3.1,9.8,4,12.8c1,3,2.6,8.9,3.2,11.1c0.6,2.3,2.6,6,3,8.6s5.7,16.5,9.9,25.5h-36.1c-3.6-10-4.3-8.3-10.3-14.4
			c-1.3-1.4-2.6-2.6-3.9-3.9c-0.2-0.2-0.4-0.4-0.7-0.7c-3.9-3.8-7.4-7.1-10.2-10.3c-0.2-0.3-0.5-0.5-0.7-0.8
			c-3.9-4.7-7.2-8-8.6-10.2c-1.5-2.2,0-4.9-4.3-11.1c-4.3-6.2-4.7-8.9-6.1-10.4c-1.3-1.5-3-4.7-1.1-6.1c1.9-1.5,4.1-1.1,5.3-0.7
			c1.1,0.5,4,2.8,5.7,4.7c1.7,1.9,2.9,3.9,3.9,5.2c0.7,1,2.6,3.9,3.8,5.7"/>
	</g>
</g>
<path class="st2" d="M78.2,45.1h-31c-2,0-3.6-1.6-3.6-3.6v-2.9c0-2,1.6-3.6,3.6-3.6h31c2,0,3.6,1.6,3.6,3.6v2.9
	C81.9,43.5,80.2,45.1,78.2,45.1z"/>
<path class="st2" d="M78.2,61h-31c-2,0-3.6-1.6-3.6-3.6v-2.9c0-2,1.6-3.6,3.6-3.6h31c2,0,3.6,1.6,3.6,3.6v2.9
	C81.9,59.4,80.2,61,78.2,61z"/>
<path class="st2" d="M78.2,77.7h-31c-2,0-3.6-1.6-3.6-3.6v-2.9c0-2,1.6-3.6,3.6-3.6h31c2,0,3.6,1.6,3.6,3.6v2.9
	C81.9,76.1,80.2,77.7,78.2,77.7z"/>
<path class="st2" d="M78.2,94.4h-31c-2,0-3.6-1.6-3.6-3.6v-2.9c0-2,1.6-3.6,3.6-3.6h31c2,0,3.6,1.6,3.6,3.6v2.9
	C81.9,92.8,80.2,94.4,78.2,94.4z"/>
<g>
	<path class="st3" d="M266.2,169h-92.1c-0.4,0-0.8-0.4-0.8-0.8V112c0-0.4,0.4-0.8,0.8-0.8h92.1c0.4,0,0.8,0.4,0.8,0.8v56.3
		C267,168.7,266.6,169,266.2,169z"/>
	<path class="st1" d="M260.6,79.9L174,111.4c-0.4,0.2-0.9-0.1-1-0.5l-4.1-11.3c-0.2-0.4,0.1-0.9,0.5-1l86.5-31.5
		c0.4-0.2,0.9,0.1,1,0.5l4.1,11.3C261.2,79.3,261,79.8,260.6,79.9z"/>
	<path class="st1" d="M266.2,124.7h-92.1c-0.4,0-0.8-0.4-0.8-0.8v-12c0-0.4,0.4-0.8,0.8-0.8h92.1c0.4,0,0.8,0.4,0.8,0.8v12
		C267,124.4,266.6,124.7,266.2,124.7z"/>
	<polygon class="st3" points="187.6,106.3 178.8,109.5 191,91 199.7,87.8 	"/>
	<polygon class="st3" points="211.4,97.6 202.6,100.8 214.8,82.3 223.6,79.1 	"/>
	<polygon class="st3" points="236.2,88.8 227.5,91.9 239.6,73.4 248.4,70.2 	"/>
	<polygon class="st3" points="249.7,124.6 259,124.6 241.2,111.3 232,111.3 	"/>
	<polygon class="st3" points="224.4,124.6 233.7,124.6 215.9,111.3 206.6,111.3 	"/>
	<polygon class="st3" points="198,124.7 207.3,124.7 189.5,111.5 180.3,111.5 	"/>
</g>
</svg>
