<?xml version="1.0" encoding="utf-8"?>
<!-- Generator: Adobe Illustrator 24.2.3, SVG Export Plug-In . SVG Version: 6.00 Build 0)  -->
<svg version="1.1" id="レイヤー_1" xmlns="http://www.w3.org/2000/svg" xmlns:xlink="http://www.w3.org/1999/xlink" x="0px"
	 y="0px" viewBox="0 0 283.5 283.5" style="enable-background:new 0 0 283.5 283.5;" xml:space="preserve">
<style type="text/css">
	.st0{fill:#FFFFFF;stroke:#000000;stroke-width:2;stroke-miterlimit:10;}
</style>
<path class="st0" d="M209.3,169.5L209.3,169.5c-1.6,4.4-4.6,8-8.4,10.2l-59.4,34.1c-6.1,3.5-13.6,1-16.9-5.6l0,0
	c-3.2-6.6-0.9-14.8,5.2-18.3l40.7-23.4c2.2-1.3,2.1-4.8-0.3-5.8l-40.5-17.3c-9.4-4-14-15.5-10.2-25.6l0,0c1.6-4.3,4.6-7.9,8.4-10.1
	l59.3-34.2c6.1-3.5,13.6-1,16.9,5.6l0,0c3.2,6.6,0.9,14.8-5.2,18.3l-40.8,23.5c-2.2,1.3-2.1,4.8,0.3,5.8l40.6,17.3
	C208.3,147.9,212.9,159.3,209.3,169.5z"/>
<path class="st0" d="M76.5,215.6H65.4c-0.9,0-1.7-0.8-1.7-1.7v-17.3c0-4,3.2-7.3,7.3-7.3h0c4,0,7.3,3.2,7.3,7.3v17.3
	C78.2,214.8,77.5,215.6,76.5,215.6z"/>
<path class="st0" d="M95.4,215.6H84.3c-0.9,0-1.7-0.8-1.7-1.7v-35.4c0-4,3.2-7.3,7.3-7.3h0c4,0,7.3,3.2,7.3,7.3v35.4
	C97.1,214.8,96.3,215.6,95.4,215.6z"/>
<path class="st0" d="M113.8,215.6h-11.1c-0.9,0-1.7-0.8-1.7-1.7v-56.8c0-4,3.2-7.3,7.3-7.3h0c4,0,7.3,3.2,7.3,7.3v56.8
	C115.6,214.8,114.8,215.6,113.8,215.6z"/>
</svg>
