<?xml version="1.0" encoding="utf-8"?>
<!-- Generator: Adobe Illustrator 24.2.3, SVG Export Plug-In . SVG Version: 6.00 Build 0)  -->
<svg version="1.1" id="レイヤー_1" xmlns="http://www.w3.org/2000/svg" xmlns:xlink="http://www.w3.org/1999/xlink" x="0px"
	 y="0px" viewBox="0 0 283.5 186.3" style="enable-background:new 0 0 283.5 186.3;" xml:space="preserve">
<style type="text/css">
	.st0{fill:#FFFFFF;stroke:#000000;stroke-width:0.5;stroke-miterlimit:10;}
	.st1{fill:none;stroke:#000000;stroke-width:0.25;stroke-miterlimit:10;}
	.st2{fill:none;stroke:#000000;stroke-width:2;stroke-linecap:round;stroke-miterlimit:10;}
	.st3{fill:none;stroke:#000000;stroke-width:0.5;stroke-miterlimit:10;}
	.st4{fill:#B5B5B6;}
	.st5{fill:#F7F8F8;stroke:#000000;stroke-width:0.5;stroke-miterlimit:10;}
	.st6{font-family:'mgenplus-1pp-bold';}
	.st7{font-size:4.4131px;}
	.st8{font-family:'mgenplus-1pp-regular';}
	.st9{font-size:4.0454px;}
	.st10{fill:none;stroke:#000000;stroke-miterlimit:10;}
	.st11{fill:none;stroke:#000000;stroke-miterlimit:10;stroke-dasharray:2.8347,2.8347;}
	.st12{stroke:#000000;stroke-width:0.5;stroke-miterlimit:10;}
	.st13{fill:#3E3A39;}
	.st14{fill:#FEFEFE;}
</style>
<g>
	<path class="st0" d="M150.6,9.7c-20.1-4-28.3,14-28.3,14s-6.2-5.7-14.1-2.2c-8.5,3.9-7.1,12.7-7.1,12.7s-9.5,1.3-11.5,11.7
		c-1.1,5.8-0.4,11.9,4.1,16.1c2.9,2.7,6.8,4.1,10.8,4.1h62.3c4.3,0,8.4-1.1,11.9-3.4c3.7-2.4,6.9-6.5,5.7-14.5
		c-1.8-12.1-14.3-13-14.3-13S171.1,13.8,150.6,9.7z"/>
	<g>
		<path class="st0" d="M270.3,175.1h-82.9c-2.8,0-5.1-2.3-5.1-5.1v-43.5c0-2.8,2.3-5.1,5.1-5.1h82.9c2.8,0,5.1,2.3,5.1,5.1V170
			C275.4,172.8,273.1,175.1,270.3,175.1z"/>
		<polygon class="st0" points="233.7,147.5 226.4,151.6 226.4,143.3 		"/>
		<path class="st1" d="M270.9,169h-84.1c-0.5,0-0.7-0.4-0.7-0.7l0,0c0-0.5,0.4-0.7,0.7-0.7h84.1c0.5,0,0.7,0.4,0.7,0.7l0,0
			C271.7,168.7,271.4,169,270.9,169z"/>
		<line class="st2" x1="198.1" y1="168.2" x2="210.2" y2="168.2"/>
		<line class="st2" x1="216.8" y1="168.2" x2="228.8" y2="168.2"/>
		<line class="st2" x1="246.4" y1="168.2" x2="258.4" y2="168.2"/>
		<circle class="st3" cx="229" cy="147.6" r="8"/>
	</g>
	<polygon class="st4" points="108.1,85.3 104.1,81.7 61.2,128.5 52.2,120.2 94.9,73.4 90.9,69.6 107.5,68.8 	"/>
	<g>
		<g>
			<g>
				<path class="st5" d="M81.3,115.7H31.9c-1.1,0-2.1,0.4-2.8,1L11.6,133c-1.6,1.3-1.6,3.5,0,4.9l17.5,17.5c0.7,0.6,1.7,1,2.8,1
					h49.5c2.2,0,4-1.6,4-3.5V119C85.3,117.2,83.5,115.7,81.3,115.7z"/>
			</g>
		</g>
		<g>
			<g>
				<path class="st5" d="M81.8,109.9H32.4c-1.1,0-2.1,0.4-2.8,1l-17.5,16.3c-1.6,1.3-1.6,3.5,0,4.9l17.5,17.7c0.7,0.6,1.7,1,2.8,1
					h49.5c2.2,0,4-1.6,4-3.5v-33.9C85.8,111.5,84,109.9,81.8,109.9z"/>
			</g>
		</g>
		<g>
			<g>
				<path class="st0" d="M82.3,104H32.9c-1.1,0-2.1,0.4-2.8,1l-17.5,16.3c-1.6,1.3-1.6,3.5,0,4.9l17.5,17.5c0.7,0.6,1.7,1,2.8,1
					h49.5c2.2,0,4-1.6,4-3.5v-33.9C86.3,105.4,84.5,104,82.3,104z M21.5,126.3c-1.6,0-2.8-1.2-2.8-2.8s1.2-2.8,2.8-2.8
					s2.8,1.2,2.8,2.8C24.4,125,23.1,126.3,21.5,126.3z"/>
			</g>
			<text transform="matrix(1 0 0 1 36.7576 115.8187)" class="st6 st7">HH:MM:SS.XX</text>
			<text transform="matrix(1 0 0 1 36.3485 124.1439)" class="st8 st9">player data </text>
			<text transform="matrix(1 0 0 1 36.3485 129.9925)" class="st8 st9">action data </text>
			<text transform="matrix(1 0 0 1 36.3485 135.9622)" class="st8 st9">result data </text>
			<g>
				<g>
					<line class="st10" x1="34.7" y1="118.3" x2="36.6" y2="118.3"/>
					<line class="st11" x1="40.1" y1="118.3" x2="72.9" y2="118.3"/>
					<line class="st10" x1="74.6" y1="118.3" x2="76.4" y2="118.3"/>
				</g>
			</g>
		</g>
	</g>
	<polygon class="st4" points="140.3,99.1 136.2,95.4 93.4,142.2 84.3,133.9 127.1,87 123.1,83.4 139.7,82.5 	"/>
	<g>
		<path class="st0" d="M113.7,121.3v48.9c0,1-0.7,1.7-1.7,1.7H73.2c-1,0-1.7-0.7-1.7-1.7v-36.6c0-0.5,0.2-0.9,0.5-1.2L84.3,120
			c0.4-0.4,0.7-0.5,1.2-0.5H112C113,119.6,113.7,120.3,113.7,121.3z"/>
		<path class="st12" d="M84.8,131.4V120l-12.7,12.7h11.3C84.2,132.8,84.8,132.2,84.8,131.4z"/>
		<polygon class="st12" points="97.3,146.4 89.3,150.9 89.3,142 		"/>
	</g>
	<polygon class="st4" points="202.4,115.2 207.2,111.6 166,58.5 176.4,50.5 217.5,103.6 222.1,99.9 219.9,117.5 	"/>
	<g>
		<path class="st0" d="M208.9,79.8H147c-3,0-5.5-2.4-5.5-5.5v-25c0-3,2.4-5.5,5.5-5.5h61.9c3,0,5.5,2.4,5.5,5.5v25
			C214.3,77.4,211.9,79.8,208.9,79.8z"/>
		<g>
			<path class="st13" d="M169.1,57.9c-0.2-0.7-0.7-1.2-1.5-1.5c-1.2-0.4-6.2-0.4-6.2-0.4s-5,0-6.2,0.4c-0.7,0.2-1.2,0.7-1.5,1.5
				c-0.4,1.2-0.4,3.8-0.4,3.8s0,2.6,0.4,3.8c0.2,0.7,0.7,1.2,1.5,1.5c1.2,0.4,6.2,0.4,6.2,0.4s5,0,6.2-0.4c0.7-0.2,1.2-0.7,1.5-1.5
				c0.4-1.2,0.4-3.8,0.4-3.8S169.5,59.1,169.1,57.9z M159.9,64.1v-4.8l4.1,2.4L159.9,64.1z"/>
			<g>
				<path class="st13" d="M176.7,66.3c-0.4-0.2-0.5-0.5-0.7-1c-0.1-0.5-0.2-1.1-0.2-1.8v-1c0-0.7,0.1-1.3,0.2-1.8
					c0.1-0.5,0.4-0.7,0.7-1c0.4-0.2,0.7-0.4,1.2-0.4s1,0.1,1.2,0.4c0.4,0.2,0.5,0.5,0.7,1c0.1,0.5,0.2,1.1,0.2,1.8v1
					c0,0.7-0.1,1.3-0.2,1.8c-0.1,0.5-0.4,0.7-0.7,1c-0.4,0.2-0.7,0.4-1.2,0.4C177.4,66.6,176.9,66.4,176.7,66.3z M178.4,65.2
					c0.1-0.2,0.1-0.6,0.1-1.1v-2.2c0-0.5,0-0.9-0.1-1.1c-0.1-0.2-0.2-0.4-0.5-0.4c-0.2,0-0.4,0.1-0.5,0.4c-0.1,0.2-0.1,0.6-0.1,1.1
					v2.2c0,0.5,0,0.9,0.1,1.1c0.1,0.2,0.2,0.4,0.5,0.4C178.2,65.5,178.3,65.3,178.4,65.2z"/>
				<path class="st13" d="M200.8,63.5v0.4c0,0.5,0,0.7,0,1c0,0.2,0.1,0.4,0.1,0.5c0.1,0.1,0.2,0.1,0.4,0.1c0.2,0,0.4-0.1,0.5-0.2
					c0.1-0.1,0.1-0.5,0.1-0.9l1.3,0.1c0,0,0,0.1,0,0.2c0,0.6-0.1,1.1-0.5,1.5c-0.4,0.4-0.9,0.5-1.5,0.5c-0.7,0-1.3-0.2-1.6-0.7
					c-0.4-0.5-0.5-1.2-0.5-2.2v-1.2c0-1.1,0.1-1.8,0.5-2.3c0.4-0.5,0.9-0.7,1.7-0.7c0.5,0,1,0.1,1.2,0.2c0.2,0.2,0.5,0.5,0.6,1
					c0.1,0.4,0.1,1,0.1,1.7v1.2h-2.6V63.5z M200.9,60.6c-0.1,0.1-0.1,0.2-0.1,0.5c0,0.2,0,0.6,0,1v0.5h1.1v-0.5c0-0.5,0-0.7,0-1
					c0-0.2-0.1-0.4-0.1-0.5c-0.1-0.1-0.2-0.1-0.4-0.1C201.2,60.5,201.1,60.5,200.9,60.6z"/>
				<path class="st13" d="M172.8,63.4l-1.8-6.5h1.6l0.6,2.9c0.1,0.7,0.2,1.3,0.4,1.8l0,0c0-0.4,0.1-1,0.4-1.8l0.6-2.9h1.6l-1.8,6.5
					v3h-1.6v-3H172.8z"/>
				<path class="st13" d="M185.2,59.5v6.9H184l-0.1-0.9l0,0c-0.4,0.6-0.9,1-1.5,1c-0.5,0-0.9-0.1-1-0.5c-0.2-0.2-0.4-0.7-0.4-1.5
					v-5.2h1.6v5.1c0,0.4,0,0.5,0.1,0.6c0.1,0.1,0.1,0.2,0.4,0.2c0.1,0,0.2,0,0.4-0.1c0.1-0.1,0.2-0.2,0.2-0.4v-5.5h1.5V59.5z"/>
				<path class="st13" d="M193.3,59.5v6.9H192l-0.1-0.9l0,0c-0.4,0.6-0.9,1-1.5,1c-0.5,0-0.9-0.1-1-0.5c-0.2-0.2-0.4-0.7-0.4-1.5
					v-5.2h1.6v5.1c0,0.4,0,0.5,0.1,0.6c0.1,0.1,0.1,0.2,0.4,0.2c0.1,0,0.2,0,0.4-0.1c0.1-0.1,0.2-0.2,0.2-0.4v-5.5h1.5V59.5z"/>
				<path class="st13" d="M189.5,58.2h-1.6v8.3h-1.6v-8.3h-1.6v-1.2h4.6v1.2H189.5z"/>
				<path class="st13" d="M198.4,60.6c-0.1-0.5-0.2-0.7-0.5-1c-0.2-0.2-0.5-0.2-0.9-0.2c-0.2,0-0.6,0.1-0.9,0.2
					c-0.2,0.1-0.5,0.4-0.6,0.6l0,0v-3.7h-1.5v9.9h1.3l0.1-0.6l0,0c0.1,0.2,0.2,0.4,0.5,0.6c0.2,0.1,0.5,0.2,0.9,0.2
					c0.5,0,1-0.2,1.2-0.7c0.2-0.5,0.4-1.2,0.4-2.3v-1.1C198.5,61.7,198.5,61.1,198.4,60.6z M197,63.5c0,0.5,0,0.9-0.1,1.2
					c0,0.2-0.1,0.5-0.2,0.6c-0.1,0.1-0.2,0.1-0.4,0.1c-0.1,0-0.2,0-0.4-0.1c-0.1,0-0.2-0.1-0.2-0.2v-3.9c0-0.2,0.1-0.4,0.2-0.5
					c0.1-0.1,0.2-0.1,0.4-0.1c0.1,0,0.2,0.1,0.4,0.2c0.1,0.1,0.1,0.4,0.1,0.6s0,0.7,0,1.2v0.9H197z"/>
			</g>
			<polygon class="st14" points="159.9,64.1 164,61.7 159.9,59.4 			"/>
		</g>
	</g>
</g>
</svg>
