<?xml version="1.0" encoding="utf-8"?>
<!-- Generator: Adobe Illustrator 24.2.3, SVG Export Plug-In . SVG Version: 6.00 Build 0)  -->
<svg version="1.1" id="White" xmlns="http://www.w3.org/2000/svg" xmlns:xlink="http://www.w3.org/1999/xlink" x="0px" y="0px"
	 viewBox="0 0 400 400" style="enable-background:new 0 0 400 400;" xml:space="preserve">
<style type="text/css">
	.st0{fill:#0A0B0D;}
</style>
<g>
	<path class="st0" d="M190.1,3.2c42.5,0.1,74.9-0.6,107.1,2.7c54,5.6,91.8,43.4,96.9,97.6c4.4,46.9,2.6,94,2.4,141
		c-0.1,22.5,0.3,45.1-5,67.3c-11.1,46.8-45.6,77.2-93.6,82.4c-19.8,2.2-39.6,2.5-59.4,2.6c-39.2,0.1-78.4,0.7-117.6-1
		c-14.5-0.6-28.8-2.2-42.6-6.8c-44.1-14.7-66.6-46.7-72.5-91.6c-2.5-19.2-2.5-38.6-2.6-58C3,199.2,2.4,159,4.3,118.8
		c1.4-30.1,8.5-58,30-80.7c23-24.2,52.3-32.2,84.3-33.7C145.9,3.2,173.1,2.9,190.1,3.2z M38.5,199.1c0.9,30.1-0.4,60.3,2.3,90.4
		c3.7,41.8,27.7,65.6,69.7,69.6c21.3,2,42.6,1.7,63.9,1.9c38.5,0.4,77,1.2,115.4-2c41.6-3.5,65.2-27.7,69.2-69.2
		c2-21,1.7-42.1,1.9-63.2c0.4-39,1.2-78-2-116.8C355.5,68.9,331.1,45,290,40.9c-21.3-2.1-42.6-1.7-63.9-1.9
		c-39-0.4-78-1.2-116.8,2.1c-40.4,3.4-64.7,28-68.4,68.4C38.2,139.3,39.4,169.3,38.5,199.1z"/>
	<path class="st0" d="M301.1,200.1c0.1,55.5-45.2,101-100.8,101.1C144.3,301.3,98.7,255.9,98.8,200c0-55.6,45.2-101,100.8-101.1
		C255.6,98.7,301,144,301.1,200.1z M134.5,199.9c0,36.1,29.3,65.4,65.3,65.6c35.8,0.1,65.3-29.2,65.6-65.3
		c0.3-35.7-29.3-65.3-65.3-65.6C164.3,134.3,134.5,164,134.5,199.9z"/>
	<path class="st0" d="M328.5,95.5c-0.3,13.2-11.2,23.7-24.3,23.4c-12.9-0.4-23.7-11.9-23.2-24.7c0.6-13.2,11.6-23.2,24.8-22.8
		C318.9,71.9,328.8,82.5,328.5,95.5z"/>
</g>
</svg>
